<svg xmlns="http://www.w3.org/2000/svg" width="25.4mm" height="25.4mm" viewBox="0 0 72 72"><title>Icon</title><path d="M23.56,64.44,17.6,61c4.14,2.36,9.64,1.8,15.49-1.57s11.33-9.16,15.45-16.3l6,3.47c-4.12,7.13-9.6,12.92-15.45,16.29S27.7,66.81,23.56,64.44" fill="#f3978b"/><path d="M48.51,7.6l6,3.47a10.73,10.73,0,0,1,3.12,2.75A17,17,0,0,1,60.77,23c0,.39.06.74.07,1.08s0,.66,0,1.05c0,6.71-2.24,14.34-6.36,21.48l-6-3.47C52.66,36,54.92,28.35,54.9,21.63c0-.38,0-.72,0-1.05s0-.69-.07-1.07a17.09,17.09,0,0,0-3.17-9.16A10.89,10.89,0,0,0,48.51,7.6" fill="#f3978b"/><path d="M44.67,6.26a11.29,11.29,0,0,1,3.86,1.35l6,3.47a11.08,11.08,0,0,0-3.86-1.35l-6-3.47" fill="#cde8e5"/><path d="M44.67,6.26h0l.08.05.09,0,5.78,3.36h0l-6-3.47h0" fill="#cde8e5"/><path d="M12.49,54.79l6,3.46a11.88,11.88,0,0,0,5.08,6.18l-6-3.47a11.82,11.82,0,0,1-5.08-6.17" fill="#cde8e5"/><path d="M34.59,8.24a17.27,17.27,0,0,1,10.06-2l6,3.47a17.22,17.22,0,0,0-10.06,2l-6-3.47" fill="#cde8e5"/><path d="M11.15,45.91l6,3.46c0,.34,0,.67,0,1a21.75,21.75,0,0,0,1.35,7.89l-6-3.46a21.75,21.75,0,0,1-1.35-7.89c0-.33,0-.66,0-1" fill="#cde8e5"/><path d="M11.15,45.8l6,3.47v.1l-6-3.46V45.8" fill="#cde8e5"/><path d="M12.59,37l6,3.47v0c-.05.17-.1.34-.19.68a36.87,36.87,0,0,0-1.23,8.12l-6-3.47a36.9,36.9,0,0,1,1.24-8.12c.09-.34.14-.51.18-.68l0,0" fill="#cde8e5"/><path d="M12.59,37A42.8,42.8,0,0,1,14,32.77l6,3.46c-.53,1.39-1,2.8-1.39,4.2l-6-3.47" fill="#cde8e5"/><path d="M34.59,8.24l6,3.47c-.55.27-1.09.56-1.64.88A42.11,42.11,0,0,0,25.72,25.3l-6-3.47A42.22,42.22,0,0,1,33,9.12c.54-.32,1.09-.61,1.64-.88" fill="#cde8e5"/><path d="M25.57,25.52l-6-3.46a2.3,2.3,0,0,1,.15-.23l6,3.47-.15.22" fill="#cde8e5"/><path d="M14,32.77a52.56,52.56,0,0,1,5.63-10.71l6,3.46A53.14,53.14,0,0,0,20,36.21L14,32.77,20,36.21v0l-6-3.46" fill="#cde8e5"/><path d="M57.86,22.37c0,.32,0,.67,0,1.05,0,6.72-2.24,14.34-6.36,21.48s-9.6,12.92-15.45,16.29-11.35,3.94-15.49,1.57-6.44-7.36-6.46-14.07a36,36,0,0,1,1.25-9.22c.09-.34.14-.51.19-.68.39-1.41.86-2.83,1.4-4.24a52.83,52.83,0,0,1,5.63-10.71l.15-.22A42.11,42.11,0,0,1,35.93,10.91c4.15-2.4,8.2-3.39,11.7-2.86a10.72,10.72,0,0,1,7,4.09,17.05,17.05,0,0,1,3.17,9.15c0,.39.06.74.07,1.08m-12-10.59c.13-.35,0-.65-.18-.67a.5.5,0,0,0-.25.07,1.12,1.12,0,0,0-.42.52L44.1,14c-.14.35-.06.64.18.66a.45.45,0,0,0,.24-.06,1.09,1.09,0,0,0,.42-.53Zm-.07,38a.81.81,0,0,0,.17-.87L45,47.63c-.09-.13-.26-.13-.43,0a1,1,0,0,0-.24.22.84.84,0,0,0-.18.87L45.1,50a.29.29,0,0,0,.42,0,.84.84,0,0,0,.25-.22M27.63,24.29a.84.84,0,0,0,.18-.87l-.91-1.27a.29.29,0,0,0-.42,0,.84.84,0,0,0-.25.22.81.81,0,0,0-.17.87l.9,1.27c.09.13.26.13.43,0a1,1,0,0,0,.24-.22m.28,33.79c.13-.34.05-.64-.19-.66a.45.45,0,0,0-.24.06,1.09,1.09,0,0,0-.42.53l-.9,2.32c-.13.34-.05.64.18.66a.5.5,0,0,0,.25-.07A1.07,1.07,0,0,0,27,60.4ZM21.56,34.81c.13-.35.05-.64-.18-.66L19.81,34a.47.47,0,0,0-.24.07,1.06,1.06,0,0,0-.42.52c-.14.35-.06.64.18.67l1.56.13a.42.42,0,0,0,.25-.07,1.07,1.07,0,0,0,.42-.52m-.12,20a.79.79,0,0,0,.17-.86c-.09-.13-.25-.14-.42,0a.82.82,0,0,0-.24.22l-1.56,1.93a.8.8,0,0,0-.18.87c.09.13.25.14.42,0a.84.84,0,0,0,.25-.22ZM50.56,17.3a.8.8,0,0,0-.17.86c.09.13.25.14.42,0a.93.93,0,0,0,.24-.21l1.56-1.94a.8.8,0,0,0,.18-.87c-.09-.13-.25-.14-.42,0a.84.84,0,0,0-.25.22Zm2.29,20.2c.14-.35.06-.64-.18-.66l-1.56-.14a.5.5,0,0,0-.25.07,1.07,1.07,0,0,0-.42.52c-.13.35,0,.64.18.66l1.57.14a.44.44,0,0,0,.24-.07,1,1,0,0,0,.42-.52M36.43,16.08V14c0-.31-.22-.44-.49-.28a1.08,1.08,0,0,0-.49.84v2.07c0,.31.22.44.49.28a1.05,1.05,0,0,0,.48-.84m18.51,9.6a1,1,0,0,0,.48-.84c0-.31-.22-.44-.48-.28l-1.81,1a1,1,0,0,0-.48.84c0,.31.21.43.48.28ZM36.55,57.53V55.46c0-.31-.22-.44-.49-.28a1.05,1.05,0,0,0-.48.84v2.07c0,.31.22.44.49.28a1.06,1.06,0,0,0,.49-.84m-19.48-10,1.8-1a1.06,1.06,0,0,0,.49-.84c0-.31-.23-.43-.49-.28l-1.81,1a1.06,1.06,0,0,0-.48.85c0,.3.22.43.49.27" fill="#cde8e5"/><path d="M45.84,11.78c.13-.35,0-.65-.18-.67a.5.5,0,0,0-.25.07,1.12,1.12,0,0,0-.42.52L44.1,14c-.14.35-.06.64.18.66a.45.45,0,0,0,.24-.06,1.09,1.09,0,0,0,.42-.53Z" fill="#5bbca9"/><path d="M50.56,17.3a.8.8,0,0,0-.17.86c.09.13.25.14.42,0a.93.93,0,0,0,.24-.21l1.56-1.94a.8.8,0,0,0,.18-.87c-.09-.13-.25-.14-.42,0a.84.84,0,0,0-.25.22Z" fill="#5bbca9"/><path d="M54.94,25.68a1,1,0,0,0,.48-.84c0-.31-.22-.44-.48-.28l-1.81,1a1,1,0,0,0-.48.84c0,.31.21.43.48.28Z" fill="#5bbca9"/><path d="M52.85,37.5c.14-.35.06-.64-.18-.66l-1.56-.14a.5.5,0,0,0-.25.07,1.07,1.07,0,0,0-.42.52c-.13.35,0,.64.18.66l1.57.14a.44.44,0,0,0,.24-.07,1,1,0,0,0,.42-.52" fill="#5bbca9"/><path d="M45.77,49.77a.81.81,0,0,0,.17-.87L45,47.63c-.09-.13-.26-.13-.43,0a1,1,0,0,0-.24.22.84.84,0,0,0-.18.87L45.1,50a.29.29,0,0,0,.42,0,.84.84,0,0,0,.25-.22" fill="#5bbca9"/><path d="M36.55,57.53V55.46c0-.31-.22-.44-.49-.28a1.05,1.05,0,0,0-.48.84v2.07c0,.31.22.44.49.28a1.06,1.06,0,0,0,.49-.84" fill="#5bbca9"/><path d="M27.91,58.08c.13-.34.05-.64-.19-.66a.39.39,0,0,0-.24.07,1,1,0,0,0-.42.52l-.9,2.32c-.13.34-.05.64.18.66a.5.5,0,0,0,.25-.07A1.07,1.07,0,0,0,27,60.4Z" fill="#5bbca9"/><path d="M21.44,54.8a.79.79,0,0,0,.17-.86c-.09-.13-.25-.14-.42,0a.82.82,0,0,0-.24.22l-1.56,1.93a.8.8,0,0,0-.18.87c.09.13.25.14.42,0a.84.84,0,0,0,.25-.22Z" fill="#5bbca9"/><path d="M17.07,47.54l1.8-1a1.06,1.06,0,0,0,.49-.84c0-.31-.23-.43-.49-.28l-1.81,1a1.06,1.06,0,0,0-.48.85c0,.3.22.43.49.27" fill="#5bbca9"/><path d="M21.56,34.81c.13-.35.05-.64-.18-.66L19.81,34a.47.47,0,0,0-.24.07,1.06,1.06,0,0,0-.42.52c-.14.35-.06.64.18.67l1.56.13a.42.42,0,0,0,.25-.07,1.07,1.07,0,0,0,.42-.52" fill="#5bbca9"/><path d="M27.63,24.29a.84.84,0,0,0,.18-.87l-.91-1.27a.29.29,0,0,0-.42,0,.84.84,0,0,0-.25.22.81.81,0,0,0-.17.87l.9,1.27c.09.13.26.13.43,0a1,1,0,0,0,.24-.22" fill="#5bbca9"/><path d="M36.43,16.08V14c0-.31-.22-.44-.49-.28a1.08,1.08,0,0,0-.49.84v2.07c0,.31.22.44.49.28a1.05,1.05,0,0,0,.48-.84" fill="#5bbca9"/><path d="M64.29,21.88c0,.38,0,.78,0,1.22a42.56,42.56,0,0,1-2,12.49A58.23,58.23,0,0,1,57,48a59.08,59.08,0,0,1-8,10.89,43.49,43.49,0,0,1-9.86,8,24.55,24.55,0,0,1-9.86,3.41,13.53,13.53,0,0,1-8.07-1.59,13.38,13.38,0,0,1-5.46-6.12,24,24,0,0,1-2-10.18,41.86,41.86,0,0,1,1.46-10.72c.1-.35.15-.55.2-.74.45-1.61,1-3.24,1.61-4.84l.09-.25a60.57,60.57,0,0,1,6.46-12.24C28,16.94,33.32,11.84,38.9,8.62c4.81-2.77,9.49-3.92,13.54-3.31A12.45,12.45,0,0,1,60.54,10a19.76,19.76,0,0,1,3.67,10.61c0,.43.06.84.08,1.23M54.5,46.58c4.12-7.14,6.38-14.77,6.36-21.48,0-.39,0-.73,0-1.05s0-.69-.07-1.08a17,17,0,0,0-3.17-9.15,10.69,10.69,0,0,0-6.89-4.08c-3.6-.54-7.64.45-11.8,2.85A42.11,42.11,0,0,0,25.72,25.3l-.15.22A52,52,0,0,0,20,36.1a43.9,43.9,0,0,0-1.46,4.37c-.05.17-.1.34-.15.56a35.92,35.92,0,0,0-1.29,9.33c0,6.72,2.31,11.72,6.46,14.08s9.65,1.81,15.49-1.57S50.38,53.71,54.5,46.58" fill="#f8c0b9"/><path d="M21,68.61l-6-3.47a13.38,13.38,0,0,1-5.36-6.07,24,24,0,0,1-2-10.18A41.78,41.78,0,0,1,9.15,38.18l6,3.46a41.86,41.86,0,0,0-1.46,10.72,24,24,0,0,0,2,10.18A13.5,13.5,0,0,0,21,68.61" fill="#f3978b"/><path d="M51,3.41l6,3.47a12.87,12.87,0,0,0-4.5-1.57c-4-.61-8.73.54-13.54,3.31-5.58,3.22-10.86,8.32-15.43,15l-6-3.46c4.57-6.64,9.86-11.74,15.43-14.95,4.81-2.78,9.49-3.92,13.55-3.32A13,13,0,0,1,51,3.41" fill="#facec8"/><path d="M17,35.81l-6-3.46A60.76,60.76,0,0,1,17.5,20.11l6,3.46A60.57,60.57,0,0,0,17,35.81" fill="#f5aca2"/><path d="M15.11,41.64l-6-3.46c.09-.36.15-.56.2-.74.45-1.61,1-3.24,1.6-4.85l6,3.47c-.62,1.6-1.16,3.23-1.61,4.84-.05.19-.1.39-.2.74" fill="#f5aca2"/><path d="M16.92,36.06l-6-3.47a2.44,2.44,0,0,1,.1-.24l6,3.46-.09.25" fill="#f5aca2"/><polygon points="39.88 36.33 40.89 37.75 39.72 39.2 38.81 37.92 39.88 36.33" fill="#facec8"/><polygon points="39.72 39.2 38.97 38.77 38.06 37.49 38.81 37.92 39.72 39.2" fill="#ff9a8a"/><polygon points="38.81 37.92 38.06 37.49 39.13 35.9 39.88 36.33 38.81 37.92" fill="#ff9a8a"/><polygon points="39.2 35.37 38.45 34.93 43.95 26.75 44.69 27.18 39.2 35.37" fill="#ffb8ad"/><polygon points="38.13 36.95 37.38 36.52 38.45 34.93 39.2 35.37 38.13 36.95" fill="#ff9a8a"/><polygon points="44.69 27.18 45.53 27.92 39.88 36.33 38.81 37.92 37.3 40.17 36.46 39.43 38.13 36.95 39.2 35.37 44.69 27.18" fill="#facec8"/><polygon points="37.3 40.17 36.55 39.74 35.71 39 36.46 39.43 37.3 40.17" fill="#ff9a8a"/><polygon points="36.46 39.43 35.71 39 37.38 36.52 38.13 36.95 36.46 39.43" fill="#ffb8ad"/><polygon points="38.13 36.95 37.38 36.52 30.9 27.37 31.65 27.8 38.13 36.95" fill="#ff9a8a"/><polygon points="31.65 27.8 30.9 27.37 32.07 25.92 32.82 26.36 31.65 27.8" fill="#ffb8ad"/><polygon points="32.82 26.36 39.2 35.37 38.13 36.95 31.65 27.8 32.82 26.36" fill="#facec8"/></svg>