<svg xmlns="http://www.w3.org/2000/svg" xmlns:xlink="http://www.w3.org/1999/xlink" width="25.4mm" height="25.4mm" viewBox="0 0 72 72"><defs><clipPath id="a"><rect x="38.04" y="43.67" width="4.71" height="4.06" fill="none"/></clipPath></defs><title>Icon</title><path d="M48.7,27.32v.54c0,.07,0,.15,0,.23v.57c0,.06,0,.12,0,.18v0a.62.62,0,0,0,0,.13c0,.05,0,.11,0,.16s0,.11,0,.16a.57.57,0,0,0,0,.13s0,0,0,.08,0,.08,0,.11v.07a.06.06,0,0,0,0,0l0,.33v0c0,.13,0,.26-.05.39s0,.26,0,.39,0,.09,0,.14l0,.2c0,.05,0,.09,0,.14s0,.2,0,.3l-.06.4s0,.05,0,.08,0,.06,0,.09,0,.05,0,.08,0,.15,0,.23l-.06.3s0,0,0,.05,0,.16-.05.24,0,.16,0,.24l-.06.27c0,.07,0,.13,0,.2l-.09.35c0,.07,0,.13,0,.19l0,.09h0a2.29,2.29,0,0,1-.07.28l-.09.35-.21.76a.75.75,0,0,0,0,.16s0,.08,0,.11l0,.11c0,.05,0,.09,0,.13-.06.2-.13.4-.19.59a.08.08,0,0,1,0,0c0,.06,0,.12-.05.18s0,0,0,0a.88.88,0,0,0-.05.15h0a.14.14,0,0,1,0,.06v0h0l-.09.27s0,0,0,0l-.08.23c0,.07-.05.14-.08.22l-.12.33,0,.07s0,0,0,0l0,.08,0,.08h0c0,.09-.07.19-.11.28l-.09.23,0,0-.15.38s-.05.11-.07.17-.17.38-.25.58a2,2,0,0,1-.1.21s0,0,0,0a1.89,1.89,0,0,1-.11.25l-.13.3c0,.09-.09.18-.13.27s-.09.17-.13.27l-.13.26-.13.27h0c-.13.27-.27.53-.41.8h0l-.28.53L44,44a.56.56,0,0,1,0,.08c0,.07-.07.14-.11.2a.75.75,0,0,1-.07.12.64.64,0,0,1-.08.14l-.06.11c-.09.16-.18.32-.28.48l-.11.19,0,.06-.09.15-.18.3-.15.25-3.59-2.39,0,0-.23.36,0,.05-.26.38-.06.09-.2.29,0,0-.28.39,3.61,2.4-.1.16-.12.17-.26.36-.26.36-.36.47-.18.24,0,.07a1.71,1.71,0,0,0-.11.14l-.12.15L40,50l-.19.24c-.06.07-.12.15-.19.22a.18.18,0,0,1-.05.07l-.13.16-.05.06-.09.11-.05.06-.09.1-.29.34-.2.22c-.06.07-.12.15-.19.22h0L38.3,52c-.13.15-.26.28-.39.42h0l-.11.12-.09.09h0c-.48.5-1,1-1.46,1.45l-.13.12a.23.23,0,0,0-.07.07l-.18.16-.21.19-.29.25-.19.16-.38.32-.18.15c-.42.34-.84.67-1.28,1l-.2.15-.21.15-.2.14-.43.29-.21.14-.22.13-.21.13-.21.14-.22.12L31,58l-5.42-3.15A24.93,24.93,0,0,0,28,53.22h0c.74-.55,1.47-1.13,2.18-1.76a38.82,38.82,0,0,0,6.24-7.19c.38-.55.74-1.11,1.09-1.68.64-1,1.23-2.11,1.78-3.2.33-.66.64-1.33.94-2a35.71,35.71,0,0,0,2.84-10.1h0a25.28,25.28,0,0,0,.18-3.11c0-4-1-7.16-2.76-9.31h0l-.29-.33.6.34,0,0L41,15h0l.33.19.12.07.13.08,1.4.81,2.71,1.57h0l.06.07.07.08,0,0a.18.18,0,0,0,0,.07h0a.46.46,0,0,1,.07.07l0,0,0,0,0,.05,0,.06.09.12a.1.1,0,0,1,0,.05l0,0,.11.15h0v0s0,0,0,0l.1.14h0l.06.09,0,0,0,.07,0,0a.56.56,0,0,0,0,.08l.05.09,0,0,0,.05a.75.75,0,0,0,.07.12.41.41,0,0,0,.05.09c0,.05,0,.1.08.14s0,0,0,0a.47.47,0,0,1,.05.1.67.67,0,0,1,.06.12.31.31,0,0,1,0,.1s0,0,0,0l.07.15s0,.07.05.1l.06.13a1,1,0,0,0,.07.15l.05.12v0h0l0,.09,0,.06,0,.12.07.18,0,.09,0,.06a.49.49,0,0,0,0,.11.14.14,0,0,0,0,.06l0,.05h0L48,22c0,.06,0,.11.05.16l0,.07v0l0,.07a.14.14,0,0,0,0,.06.29.29,0,0,0,0,.09l0,.11s0,0,0,.05l0,.1,0,.15v0h0l0,.13,0,.05s0,.05,0,.08a.09.09,0,0,1,0,.05h0l0,.11s0,.07,0,.11a0,0,0,0,0,0,0v.1h0a.43.43,0,0,0,0,.05v0a.36.36,0,0,1,0,.11.51.51,0,0,1,0,.13s0,0,0,0,0,.05,0,.08v0h0v0a.77.77,0,0,1,0,.15v.08h0s0,.08,0,.12,0,.07,0,.1a.09.09,0,0,0,0,.05c0,.05,0,.09,0,.14v0c0,.08,0,.15,0,.22h0a.11.11,0,0,1,0,.05.15.15,0,0,0,0,.07c0,.06,0,.12,0,.18a.22.22,0,0,1,0,.08.06.06,0,0,0,0,0v0c0,.07,0,.14,0,.22v0s0,.05,0,.08v.08a.28.28,0,0,1,0,.09c0,.06,0,.12,0,.17s0,.2,0,.3v.05s0,0,0,0v.19c0,.06,0,.13,0,.19v.22h0v.17" fill="#f8c0b9"/><path d="M43.43,30.37c0,.29,0,.59,0,.89a1.15,1.15,0,0,1,0,.19v.09c0,.06,0,.12,0,.19s0,.37-.05.56,0,.11,0,.16a19.5,19.5,0,0,1-.32,2,1.42,1.42,0,0,1,0,.2c0,.13-.05.26-.08.38s-.07.26-.1.39c-.11.46-.24.91-.38,1.37,0,.11-.07.22-.11.34l-.1.3c-.09.27-.19.54-.29.81l-.07.19a2.77,2.77,0,0,0-.1.26l-.21.49a1.86,1.86,0,0,1-.1.25c-.28.66-.59,1.32-.92,2l-.12.22c0,.09-.09.18-.14.27l-.12.23-.35.62a2.39,2.39,0,0,1-.13.21l-.15.26-.31.5h0l0,0-.23.36,0,.05-.26.38-.06.09-.2.29,0,0-.28.39-.38.51-.19.25-.15.19,0,.06-.15.19-.25.3c-.11.14-.23.27-.34.4-.3.34-.6.67-.91,1l-.2.21c-.3.3-.59.59-.9.86a2.09,2.09,0,0,1-.22.2l0,0-.18.15-.22.2-.2.16,0,0-.24.19,0,0-.2.15-.18.14a3.15,3.15,0,0,1-.29.22l-.24.17,0,0-.22.15-.23.16h0l-.23.15-.25.16-.23.14h0l-.24.14-.78-.46-4.63-2.69c.35-.2.69-.42,1-.65h0l0,0a24.39,24.39,0,0,0,5.22-4.92c.33-.42.65-.85,1-1.29l.08-.12c.32-.45.62-.91.92-1.38l.1-.18.06-.09c0-.06.07-.11.1-.16s.22-.37.32-.56c.38-.65.73-1.32,1.06-2A24.1,24.1,0,0,0,38,27.22a12,12,0,0,0-1-5l2.71,1.58,1.4.82.67.39.15.08.48.28.06.13.06.13a.69.69,0,0,1,0,.13.61.61,0,0,1,0,.12h0c0,.09.07.18.1.28l0,.08,0,.07a.14.14,0,0,1,0,.06l0,.14,0,.07a1.21,1.21,0,0,1,.05.18l0,.11c0,.1.06.2.08.3l0,.12h0v0l0,.14h0a.17.17,0,0,1,0,.07s0,0,0,.06,0,.2,0,.3,0,0,0,0,0,.15,0,.23v0s0,.06,0,.09,0,.06,0,.08l0,.23c0,.06,0,.11,0,.17v0c0,.05,0,.11,0,.16v0s0,.08,0,.12,0,.13,0,.2,0,.13,0,.19a.66.66,0,0,0,0,.14v.21a1.77,1.77,0,0,1,0,.23v.29" fill="#f3978b"/><path d="M30.82,38.45a1.36,1.36,0,0,0,0-.21l5.42,3.15a1.34,1.34,0,0,1,0,.21,1.67,1.67,0,0,1-.95,1.52L29.86,40a1.7,1.7,0,0,0,1-1.52" fill="#fff"/><path d="M30.8,38.24a.45.45,0,0,0-.19-.33L36,41.06a.43.43,0,0,1,.2.33L30.8,38.24" fill="#fff"/><path d="M30.61,37.91,36,41.06l0,0a.86.86,0,0,0-.72.16l-5.42-3.14c.32-.19.56-.24.72-.17l0,0" fill="#f7b6ad"/><polygon points="26.67 48.09 21.25 44.94 29.86 39.97 35.28 43.12 26.67 48.09" fill="#fff"/><polygon points="29.68 44.43 24.27 41.28 29.86 38.06 35.27 41.2 29.68 44.43" fill="#f7b6ad"/><path d="M33.29,36.3l-2.7-1.58,2.7,1.58Z" fill="#fff"/><polygon points="29.67 39.16 24.25 36.01 27.19 34.31 32.61 37.46 29.67 39.16" fill="#fff"/><path d="M27.88,33.15l1.82,1.06.89.51,2.7,1.58a1.45,1.45,0,0,1-.68,1.16l-5.42-3.15a1.27,1.27,0,0,0,.49-.51,1.29,1.29,0,0,0,.2-.65" fill="#fff"/><path d="M20.83,45.12a1.76,1.76,0,0,0,.42-.18l5.42,3.15a1.76,1.76,0,0,1-.42.18l-5.42-3.15" fill="#fff"/><path d="M20.6,45.13a.45.45,0,0,0,.23,0l5.42,3.15a.46.46,0,0,1-.23,0L20.6,45.13" fill="#fff"/><path d="M20.6,45.13l.09.06.18.1.1.06,1.14.66L26,48.28l-.07,0-5.42-3.15.07,0" fill="#fff"/><path d="M20.5,45.1h0L26,48.26h0L20.5,45.1" fill="#fff"/><path d="M27.88,33.15a.46.46,0,0,0-.2-.43l5.42,3.15a.46.46,0,0,1,.19.43l-5.41-3.15Z" fill="#fff"/><path d="M27.68,32.72l5.42,3.15h0l-5.42-3.15h0" fill="#fff"/><polygon points="26.66 46.17 21.25 43.02 22.27 42.44 27.68 45.59 26.66 46.17" fill="#f7b6ad"/><path d="M32.61,35.93l-5.42-3.15a.5.5,0,0,1,.49-.06l5.42,3.15a.5.5,0,0,0-.49.06" fill="#f7b6ad"/><path d="M36.2,29.21l-2.71-1.58,2.71,1.58Z" fill="#fff"/><path d="M25.92,48.25,20.5,45.1q-.21-.12-.21-.57a1.57,1.57,0,0,1,.24-.84,2.1,2.1,0,0,1,.72-.66l5.41,3.14a2,2,0,0,0-.71.66,1.57,1.57,0,0,0-.24.84c0,.3.07.49.21.58" fill="#f7b6ad"/><path d="M40.23,14.54a8.6,8.6,0,0,0-2.12-1.75l5.42,3.15a8.79,8.79,0,0,1,2.12,1.75l-2.71-1.58-1.4-.81-.67-.39a6.67,6.67,0,0,1-.64-.37" fill="#f8c0b9"/><path d="M37,22.21a6.69,6.69,0,0,0-2.65-3l5.41,3.15a6.57,6.57,0,0,1,2.65,3L41.81,25l-.67-.39-1.4-.82L37,22.21" fill="#f3978b"/><path d="M16.69,49.64C19,51,22.1,50.77,25.57,48.77L31,51.92c-3.47,2-6.61,2.19-8.88.87l-5.42-3.15" fill="#f3978b"/><path d="M13,56.06c3.23,1.87,7.7,1.61,12.63-1.24L31,58c-4.94,2.85-9.41,3.11-12.63,1.23L13,56.06" fill="#f8c0b9"/><path d="M30.78,26.06a.66.66,0,0,0-.3-.63l5.42,3.15a.65.65,0,0,1,.3.63l-5.41-3.15,5.41,3.15A1.8,1.8,0,0,1,36,30a1.3,1.3,0,0,1-.47.55.8.8,0,0,1-.34.11,1.27,1.27,0,0,1-.33,0L29.45,27.5a1.31,1.31,0,0,0,.33,0,.82.82,0,0,0,.34-.12,1.25,1.25,0,0,0,.47-.55,1.77,1.77,0,0,0,.19-.8" fill="#fff"/><polygon points="29.68 44.43 24.27 41.28 24.25 36.01 29.67 39.16 29.68 44.43" fill="#fff"/><path d="M30.48,25.43l5.42,3.15-.09,0-5.42-3.15.09.05" fill="#f7b6ad"/><polygon points="29.67 37.63 24.25 34.48 27.19 32.78 32.61 35.93 29.67 37.63" fill="#f7b6ad"/><path d="M28,27.3a4.79,4.79,0,0,1,1.44.2l5.42,3.15a4.79,4.79,0,0,0-1.44-.2L28,27.3" fill="#fff"/><polygon points="27.68 45.59 22.27 42.44 22.25 37.16 27.67 40.31 27.68 45.59" fill="#f7b6ad"/><path d="M28,27.3l.15.09,1.19.69,1.34.78,2.74,1.59h-.29l-5.42-3.14h.1l.19,0" fill="#fff"/><polygon points="26.38 41.06 20.96 37.91 22.25 37.16 27.67 40.31 26.38 41.06" fill="#fff"/><polygon points="29.67 37.63 24.25 34.48 24.24 31.66 29.66 34.81 29.67 37.63" fill="#fff"/><path d="M20.47,38a.5.5,0,0,0,.49-.06l5.42,3.15a.5.5,0,0,1-.49.06L20.47,38" fill="#fff"/><path d="M20.47,38h0l5.42,3.15h0L20.47,38" fill="#fff"/><path d="M20.46,38h0l5.42,3.15h0L20.46,38" fill="#fff"/><polygon points="26.37 39.53 20.95 36.38 22.25 35.63 27.66 38.78 26.37 39.53" fill="#f7b6ad"/><path d="M25.88,41.11,20.46,38a.46.46,0,0,1-.19-.43,1.2,1.2,0,0,1,.2-.65,1.32,1.32,0,0,1,.48-.51l5.42,3.15a1.34,1.34,0,0,0-.49.51,1.27,1.27,0,0,0-.19.65.43.43,0,0,0,.19.42" fill="#f7b6ad"/><path d="M27.72,27.33a.56.56,0,0,1,.17.09l.09,0,.18.11.18.11.09,0,.72.41,4,2.32a4.08,4.08,0,0,0-1.43.52,4,4,0,0,0-1.5,1.52,4.55,4.55,0,0,0-.55,2.3l-5.42-3.15a4.58,4.58,0,0,1,.55-2.3,4.05,4.05,0,0,1,1.5-1.52,3.92,3.92,0,0,1,1.43-.51" fill="#fff"/><path d="M31.62,29.14,26.21,26a6.29,6.29,0,0,1,2.27-.83,3.47,3.47,0,0,1,1.91.22l5.42,3.15a3.48,3.48,0,0,0-1.91-.22,6.4,6.4,0,0,0-2.28.83" fill="#f7b6ad"/><polygon points="27.66 38.78 22.25 35.63 22.24 32.66 27.66 35.81 27.66 38.78" fill="#f7b6ad"/><path d="M27.66,35.81l-5.42-3.15a7.3,7.3,0,0,1,1.06-3.8A7.93,7.93,0,0,1,26.21,26l5.41,3.15A8,8,0,0,0,28.72,32a7.27,7.27,0,0,0-1.06,3.81" fill="#f7b6ad"/><path d="M34.38,19.21l5.41,3.15c-2.27-1.32-5.41-1.13-8.88.87l-5.42-3.15c3.47-2,6.62-2.19,8.89-.87" fill="#fff"/><path d="M38.11,12.79l5.41,3.15c-3.22-1.88-7.69-1.61-12.63,1.24L25.48,14c4.93-2.85,9.4-3.11,12.63-1.24" fill="#f3978b"/><path d="M22.11,52.79l-5.42-3.15c-2.24-1.3-3.63-4.07-3.64-8,0-7.92,5.55-17.57,12.44-21.55l5.42,3.15c-6.89,4-12.46,13.63-12.44,21.55,0,3.94,1.4,6.7,3.64,8" fill="#fff"/><path d="M33.85,40.38l-1.69-1H29.67v5l2.2-1.26,1.55-.9.19-.11,1.65-1Zm-2.56-3.69,1.32-.76,0,0-2-1.19-.9-.52v0c0,.19,0,.38,0,.58v2.82l.41-.24Zm12.14-6.51v-.1a1.77,1.77,0,0,0,0-.23v-.21a.66.66,0,0,1,0-.14c0-.06,0-.13,0-.19s0-.13,0-.2,0-.08,0-.12v0s0-.11,0-.16v0c0-.06,0-.11,0-.17l0-.23s0-.05,0-.08,0-.06,0-.09v0c0-.08,0-.16,0-.23s0,0,0,0,0-.2,0-.3,0,0,0-.06,0-.05,0-.07h0l0-.14v0h0l0-.12c0-.1,0-.2-.08-.3l0-.11a1.21,1.21,0,0,0-.05-.18l0-.07,0-.14a.14.14,0,0,0,0-.06l0-.07,0-.08c0-.1-.07-.19-.1-.28h0l0-.12a.69.69,0,0,0,0-.13l-.06-.13-.06-.13-.06-.12-.06-.13L42.26,25l-.06-.1a.83.83,0,0,0-.07-.13h0l0,0-.06-.11L42,24.53l-.14-.22,0,0,0-.05,0,0h0l0-.07-.05-.06v0L41.59,24h0l0-.05a.86.86,0,0,1-.07-.1l-.17-.19-.07-.08h0l-.18-.19L41,23.26l-.22-.2-.12-.1h0l-.24-.19-.08-.05h0L40,22.48l-.07-.05-.14-.08h0l0,0-.09-.05-.07,0-.09,0-.08,0-.15-.07h0l-.1,0h0L39,22h0l-.08,0h0l-.21-.08h-.11l-.09,0h0l-.11,0h0l-.13,0h0l-.07,0-.07,0h-.09l-.11,0-.18,0h-.1l-.1,0h-.92a10,10,0,0,0-3.75.8l-.36.15-.55.26-.38.19-.56.31-.32.19-.16.1-.16.1-.16.1c-.37.24-.74.5-1.1.77l-.14.1-.16.14-.16.12L28.4,25l-.3.25,0,0h0a.69.69,0,0,0-.13.11l-.3.26-.15.13-.66.62-.21.21-.29.29L26.2,27l-.14.15-.12.13-.15.17-.14.15-.15.18-.12.13-.27.31-.13.16-.14.16-.32.41c-.11.13-.21.27-.32.41l-.12.16-.12.16-.13.18c-.09.11-.17.23-.25.34l-.36.52a1,1,0,0,1-.11.17l-.12.18c-.07.12-.15.23-.23.35a1.74,1.74,0,0,1-.11.18l-.11.18-.22.36s-.05.08-.07.13l0,0c-.15.24-.29.49-.42.73s-.34.62-.49.93c-.07.13-.13.25-.19.38l-.18.38-.09.19-.09.19-.09.19-.12.29-.12.28c0,.07-.06.13-.08.19a1.67,1.67,0,0,0-.08.2c0,.06-.05.12-.08.19s-.05.13-.08.19L20,37c-.12.32-.23.65-.34,1l-.06.19c0,.07-.05.13-.07.2l-.06.19c-.08.3-.17.59-.24.88,0,.1-.06.19-.08.29l-.09.39c0,.06,0,.13-.05.19s0,.13,0,.2c-.1.45-.18.9-.25,1.35,0,.1,0,.2,0,.29s0,.19,0,.29h0l0,.27-.06.59a2.64,2.64,0,0,1,0,.28h0c0,.09,0,.17,0,.26,0,.31,0,.61,0,.91v.32a.66.66,0,0,0,0,.14v.19s0,0,0,.07v.18a.86.86,0,0,0,0,.16v0a.34.34,0,0,0,0,.1v.07s0,0,0,.06v.1s0,.11,0,.16a1,1,0,0,1,0,.17l0,.23a1.57,1.57,0,0,0,0,.23l0,.19h0s0,.08,0,.12l0,.15a.5.5,0,0,1,0,.12l0,.07,0,.08h0s0,0,0,.07l0,.08,0,.11a.36.36,0,0,1,0,.1h0a1.46,1.46,0,0,0,.05.2s0,.09,0,.13a.43.43,0,0,0,0,0s0,0,0,.06l.06.17.06.2s0,.09.05.13v.06l.06.16a.2.2,0,0,0,0,.08l0,.09,0,.07,0,0a.84.84,0,0,0,.06.14v0l.06.14,0,0a.54.54,0,0,1,.05.11l.07.12,0,0,0,.06h0l.07.12h0a.13.13,0,0,0,0,.06l0,0h0a.75.75,0,0,0,.07.12l.14.22h0l.06.1.11.14v0l.08.1.05.07.06.07.08.1.09.1.07.08.1.11,0,0,.33.31.13.12.14.11.07.06h0l.06,0h0l.12.09.14.09.11.07h0l.15.09h0l0,0,.1.06.07,0,0,0,.11.06h0l.13.06h.05l.1.05.05,0,.05,0h0l.16.06h0l.14,0h0l.12,0h.05l.07,0,0,0h.23l.06,0h0l.15,0h0l.18,0h.1l.14,0h.91c.27,0,.55,0,.84,0l.13,0,.32,0,.16,0,.51-.1.68-.18h0l.18-.06.18,0,.18-.07.62-.23.13-.06.33-.14.09,0,.13-.06.75-.38.37-.21.24-.14h0l.23-.14.25-.16.23-.15h0l.23-.16.22-.15,0,0,.24-.17a3.15,3.15,0,0,0,.29-.22l.18-.14.2-.15,0,0,.24-.19,0,0,.2-.16.22-.2.18-.15,0,0a2.09,2.09,0,0,0,.22-.2c.31-.27.6-.56.9-.86l.2-.21c.31-.32.61-.65.91-1,.11-.13.23-.26.34-.4l.25-.3.15-.19,0-.06.15-.19.19-.25.38-.51.28-.39,0,0,.2-.29.06-.09.26-.38,0-.05.23-.36,0,0h0l.31-.5.15-.26a2.39,2.39,0,0,0,.13-.21l.35-.62.12-.23c0-.09.1-.18.14-.27l.12-.22c.33-.64.64-1.3.92-2a1.86,1.86,0,0,0,.1-.25l.21-.49a2.77,2.77,0,0,1,.1-.26l.07-.19c.1-.27.2-.54.29-.81l.1-.3c0-.12.07-.23.11-.34.14-.46.27-.91.38-1.37,0-.13.06-.26.1-.39s0-.25.08-.38a1.42,1.42,0,0,0,0-.2,19.5,19.5,0,0,0,.32-2c0-.05,0-.1,0-.16s0-.38.05-.56,0-.13,0-.19v-.09a1.15,1.15,0,0,0,0-.19c0-.3,0-.6,0-.89v-.19m-7.53-1.6,0,0,0,0,0,0,.07.09s0,0,0,0a.3.3,0,0,1,0,.08v0s0,0,0,0v0a.43.43,0,0,1,0,.05s0,0,0,0v0a.09.09,0,0,1,0,.05v.08h0A1.8,1.8,0,0,1,36,30a1.3,1.3,0,0,1-.47.55.8.8,0,0,1-.34.11,1.27,1.27,0,0,1-.33,0,5.33,5.33,0,0,0-.92-.18h-.71l-.1,0a1.61,1.61,0,0,0-.37.07l-.1,0-.12,0-.07,0-.1,0-.09,0-.19.08-.08,0-.21.11-.1.06a4.07,4.07,0,0,0-2,2.92,2.89,2.89,0,0,0,0,.29v0c0,.19,0,.38,0,.58v2.82l.41-.24,1.21-.7,1.32-.76,0,0h0a.48.48,0,0,1,.47,0l0,0,0,0a.49.49,0,0,1,.11.36h0a1.18,1.18,0,0,1-.19.65,1.38,1.38,0,0,1-.38.44l-.11.07-1.39.8-.1.06-.09,0-.21.13-.11.06-1,.6v5.27l2.2-1.26,1.55-.9.19-.11,1.65-1,.1-.05a1.18,1.18,0,0,1,.25-.1A.53.53,0,0,1,36,41h0l0,0,0,0,0,0h0l0,0h0l0,0h0s0,0,0,.05h0s0,0,0,0,0,0,0,.06h0a1.34,1.34,0,0,1,0,.21v.12a1.7,1.7,0,0,1-.95,1.4l-.3.17-8.31,4.8-.05,0h0l-.09,0,0,0-.05,0-.06,0-.14.05h-.32l0,0h0l0,0,0,0h0l0,0h0l0,0a1.17,1.17,0,0,1-.05-.11v0h0s0-.06,0-.09a.13.13,0,0,0,0-.06v-.29a1.54,1.54,0,0,1,.24-.7,2,2,0,0,1,.71-.66l1-.58V40.31l-1.29.75a.5.5,0,0,1-.49.06h0l0,0,0,0a.21.21,0,0,1-.06-.1s0,0,0-.05a.24.24,0,0,1,0-.08.53.53,0,0,1,0-.13v0a.57.57,0,0,1,0-.13.09.09,0,0,1,0-.05,0,0,0,0,1,0,0h0a1370095001326.59,1370095001326.59,0,0,1,0-.16l.06-.14.06-.11a1.42,1.42,0,0,1,.47-.5h0l1.29-.75v-3a7.49,7.49,0,0,1,.09-1.17,5.84,5.84,0,0,1,.18-.83,4.2,4.2,0,0,1,.17-.5v0a2.6,2.6,0,0,0,.1-.25,9,9,0,0,1,.52-1,7.82,7.82,0,0,1,2.52-2.63h0l.15-.09h0l.23-.13L32,29a5.92,5.92,0,0,1,1.94-.65,5.53,5.53,0,0,1,.69,0h0a3.11,3.11,0,0,1,1.21.26.31.31,0,0,1,.1,0h0" fill="#fff"/><path d="M41.83,6.38l5.42,3.15c-4.18-2.44-10-2.09-16.38,1.6L25.46,8c6.39-3.69,12.19-4,16.37-1.6" fill="#f8c0b9"/><path d="M18.38,59.21,13,56.06C9.77,54.21,7.8,50.27,7.78,44.67c0-11.26,7.89-25,17.7-30.64l5.41,3.15c-9.8,5.66-17.72,19.38-17.69,30.64,0,5.6,2,9.53,5.18,11.39" fill="#f3978b"/><path d="M47.25,9.53l0,0-.3-.16-.06,0h0l-.09-.05-.1-.05h0l-.12-.06-.15-.07L46.18,9,46,8.9h0l-.17-.07,0,0-.18-.07h0l-.14-.05-.32-.11-.14,0-.14,0-.13,0-.21-.06-.18-.05h0l-.14,0-.14,0-.19,0-.16,0-.09,0-.33,0-.17,0H43l-.31,0-.19,0H40.61l-.55,0-.22,0h-.17l-.2,0-.21,0-.16,0-.24,0-.17,0-.14,0-.19,0-.27,0h0l-.15,0-.07,0h-.07l-.11,0-.17,0-.32.08L37,8.55l-.1,0-.12,0h0l-.16,0h0l-.08,0-.29.09L36,8.82l-.15,0-.19.07-.12,0h0l0,0-.21.07-.1,0h0L35,9.19h0l-.16.06-.17.07h0l-.33.13-.11,0-.1,0L34,9.59l-.29.12,0,0-.34.16L33,10l-.12.06-.31.15-.34.17-.35.18-.34.18,0,0-.29.15h0l-.34.2c-.74.42-1.46.88-2.18,1.37h0l-.35.24a.71.71,0,0,1-.14.1l-.15.12-.33.23-.26.2c-.23.17-.46.34-.69.53l-.32.25-.31.25-.34.28-.57.49-.17.14-.21.19-.27.24-.74.68-.18.18-.16.15-.05.05-.21.21-.27.26-.22.22-.11.12-.22.22-.23.24-.37.39,0,.05-.2.22h0l-.17.19c-.42.46-.84.93-1.24,1.41-.06.07-.11.14-.17.2l-.56.69-.3.37-.29.37c-.09.12-.19.24-.28.37l-.29.38-.31.41-.25.35c-.09.13-.18.26-.28.38s-.13.19-.19.28c-.55.79-1.09,1.59-1.6,2.41-.07.11-.14.22-.2.33-.55.88-1.07,1.78-1.56,2.69l-.26.49c-.1.18-.19.36-.28.54l-.18.35c-.06.11-.12.23-.17.34l-.27.53v0c-.08.17-.17.35-.25.53s-.21.44-.31.66l-.21.47a.2.2,0,0,1,0,.08l-.21.5c-.15.34-.29.67-.42,1l-.15.36c0,.12-.09.24-.14.36s0,.07,0,.11a1.17,1.17,0,0,1,0,.11l-.33.9c0,.07-.05.15-.08.22a.88.88,0,0,0-.05.15c0,.12-.09.24-.13.37v0c0,.08-.05.16-.08.24l-.09.26-.15.46a.64.64,0,0,1,0,.07l-.15.48c0,.11-.07.21-.1.32l-.09.32a2.17,2.17,0,0,0-.07.24c0,.13-.08.26-.11.39l-.09.32c0,.09,0,.19-.08.29a0,0,0,0,1,0,0c0,.1,0,.21-.08.31s0,.21-.08.31h0c0,.11,0,.21-.07.31l-.09.38a1.29,1.29,0,0,0,0,.19L8.81,43l-.06.31c0,.1,0,.21-.07.31s-.08.41-.11.62l-.06.3s0,.08,0,.11l0,.18v0l0,.15,0,.2,0,.16s0,.08,0,.11l0,.2,0,.12a2.51,2.51,0,0,0,0,.27c0,.1,0,.2,0,.3l0,.24s0,.09,0,.14a1.1,1.1,0,0,1,0,.18s0,.07,0,.11l-.06.53a1.5,1.5,0,0,1,0,.22v0s0,.1,0,.16v0h0v0c0,.1,0,.2,0,.29H8l0,.39c0,.07,0,.14,0,.21H8a1.34,1.34,0,0,0,0,.2H8v.23a1.62,1.62,0,0,0,0,.22,1.48,1.48,0,0,0,0,.21c0,.09,0,.17,0,.26v1.16c0,.2,0,.4,0,.6A.34.34,0,0,1,8,52c0,.12,0,.25,0,.37H8c0,.1,0,.2,0,.3H8a.38.38,0,0,1,0,.1.31.31,0,0,0,0,.1v0C8,53,8,53,8,53.11v.08s0,.09,0,.13v0l0,.29v0h0v0c0,.12,0,.24,0,.36v.05h0a1.1,1.1,0,0,0,0,.18s0,.07,0,.11v0a1.1,1.1,0,0,0,0,.18s0,.08,0,.12l0,.19a.13.13,0,0,0,0,.06v0c0,.21.07.41.11.6a.3.3,0,0,0,0,.1v.09c0,.13.06.25.08.38s.07.3.1.44,0,.13,0,.19a1.33,1.33,0,0,0,.05.19l0,.15c.06.22.12.43.19.64h0c0,.06,0,.12,0,.18l.06.18.06.18.06.18.06.16c.08.23.17.45.26.68l0,.07a1.42,1.42,0,0,0,.08.18s0,0,0,.06l0,0a.2.2,0,0,0,0,.08l0,.09a2.56,2.56,0,0,1,.11.24l.09.17h0l.08.16.06.11,0,.07.14.27,0,0h0v0h0l0,0,.11.19a10.56,10.56,0,0,0,.59.93l.07.12.16.21.14.19,0,0,.14.18c0,.07.11.13.16.19l0,0a.39.39,0,0,1,.08.1l.17.18.09.11a11.64,11.64,0,0,0,1,1l.15.12a11.06,11.06,0,0,0,1.31.93l.07,0,.08,0,0,0c4.19,2.43,10,2.09,16.37-1.6a44.88,44.88,0,0,0,14.23-13.9l-3.59-2.39h0l-.1.16-.12.17-.26.36-.26.36-.36.47-.18.24h0l0,.07a1.71,1.71,0,0,0-.11.14l-.12.15L40,50l-.19.24-.18.22h0a.18.18,0,0,1-.05.07l-.13.16h0l-.05.06-.09.11-.05.06-.09.1-.29.34-.2.22c-.06.07-.12.15-.19.22h0L38.3,52c-.13.15-.26.28-.39.42h0l-.11.12-.09.09h0c-.48.5-1,1-1.46,1.45l-.13.12a.23.23,0,0,0-.07.07l-.18.16-.21.19-.29.25-.19.16-.38.32-.18.15c-.42.34-.84.67-1.28,1l-.2.15-.21.15-.2.14-.43.29-.21.14-.22.13-.21.13-.21.14-.22.12L31,58l-.23.13-.31.17-.22.12-.57.29-1,.48-.52.21-.51.19-.25.09-.26.08-.25.08-.25.07-.24.07h0l-.2,0-.31.08-.19,0h0l-.18,0-.07,0-.21,0-.24,0-.24,0-.24,0-.23,0-.23,0-.45,0H21.62l-.19,0h0l-.13,0h-.08l-.09,0-.15,0-.24,0h0l-.21-.05-.07,0-.1,0-.08,0h0l-.12,0-.13,0h0l-.24-.09-.08,0-.09,0-.1,0-.09,0-.08,0h0l-.09,0-.14-.06-.1-.05-.09,0-.08,0-.15-.08h0l-.21-.12,0,0h0l-.07,0-.1-.07L18,59l-.18-.13,0,0-.09-.06-.09-.07a4.08,4.08,0,0,1-.39-.31L17,58.21l-.15-.14L16.73,58l-.07-.07h0l-.11-.11-.05-.05-.09-.1a0,0,0,0,1,0,0l-.05-.06-.06,0v0l-.11-.13,0,0,0,0a.27.27,0,0,0-.07-.08L16,57.12l0,0L15.89,57a.08.08,0,0,1,0,0l0,0-.09-.12-.11-.15-.15-.22-.08-.12s0,0,0,0l-.07-.1,0-.05a.21.21,0,0,0,0-.06s0,0,0,0h0l0-.07h0v0l-.1-.16h0l-.06-.1h0l-.06-.1-.11-.21a.59.59,0,0,1,0-.08l0-.06a.8.8,0,0,1-.08-.16l-.09-.18a.69.69,0,0,1-.05-.13,2,2,0,0,1-.1-.21,2.44,2.44,0,0,0-.1-.24v0a2,2,0,0,1-.08-.22.61.61,0,0,1-.05-.12v0l0-.09,0,0a.24.24,0,0,1,0-.08.64.64,0,0,1-.06-.18l0,0,0-.09a1.18,1.18,0,0,1-.07-.2.56.56,0,0,0,0-.12.83.83,0,0,0,0-.15.14.14,0,0,0,0-.06v-.07s0-.1-.05-.15l0-.15h0c0-.07,0-.13,0-.19a.09.09,0,0,1,0,0,.74.74,0,0,1,0-.14,1.16,1.16,0,0,0,0-.18l-.06-.29-.06-.32a.59.59,0,0,0,0-.13s0-.11,0-.16,0-.07,0-.1v0c0-.08,0-.16,0-.25l0-.27,0-.21v-.06s0,0,0,0,0-.11,0-.16l0-.3c0-.07,0-.14,0-.21v-.07c0-.06,0-.13,0-.19v-.1h0a1.27,1.27,0,0,1,0-.2,2.09,2.09,0,0,1,0-.25.49.49,0,0,1,0-.12v-.2s0-.05,0-.07v-.74a1,1,0,0,1,0-.17V47c0-.1,0-.21,0-.31a.66.66,0,0,0,0-.14c0-.06,0-.13,0-.19v0s0-.11,0-.16,0-.18,0-.27,0-.08,0-.13,0-.16,0-.25a.13.13,0,0,1,0-.06l0-.36h0a1.37,1.37,0,0,0,0-.19,1.11,1.11,0,0,0,0-.19h0c0-.1,0-.2,0-.3,0-.31.09-.61.13-.92a.06.06,0,0,0,0,0l.06-.37c0-.13.05-.25.07-.37s0-.06,0-.08.05-.24.07-.35,0,0,0-.05.05-.26.08-.39a.83.83,0,0,1,0-.15.29.29,0,0,1,0-.09l0-.17.09-.37v0s0-.05,0-.07l.09-.37.11-.41.09-.33,0-.12v0c.07-.26.15-.51.23-.76s.07-.25.11-.37l0-.1.12-.36.14-.42s0,0,0,0l.12-.36.15-.41.08-.21.08-.2.12-.32v0c.07-.16.13-.33.2-.49v0l.15-.36.17-.41.18-.41.15-.33a.25.25,0,0,1,0-.07c.11-.25.22-.49.34-.74a.54.54,0,0,0,.05-.11l.18-.36c.07-.13.13-.27.2-.4l.21-.4.2-.38.22-.41c.14-.26.29-.52.44-.78l.22-.38c.08-.13.16-.26.23-.39s.17-.27.25-.4l.22-.36.21-.32.06-.09c.07-.11.14-.23.22-.34l.21-.32,0,0c.08-.13.17-.25.25-.37l.22-.32,0-.05.26-.36.18-.25.05-.06.12-.17c.06-.09.13-.17.19-.25s.17-.22.25-.34a3.25,3.25,0,0,0,.23-.29l.11-.13.21-.27c.1-.11.19-.23.28-.34l.25-.3.32-.37.26-.3.05-.05.27-.3c.09-.1.17-.2.26-.29l0,0,.3-.32.07-.08.23-.23.3-.31.28-.28.33-.32.29-.27L26,20.8l.27-.24,0,0,.27-.24,0,0,.23-.19L27,20l.13-.11.24-.2.11-.08.33-.27h0L28.1,19h0l.31-.23,0,0h0l.15-.11.15-.11.3-.21.26-.18.12-.08.23-.15a3.28,3.28,0,0,1,.31-.2l.24-.15.23-.14.15-.09.1-.07.2-.11.19-.11.15-.08.29-.16.29-.16.29-.14.29-.14.15-.08L33,16.1l.26-.11.26-.11.51-.2.76-.26a4.74,4.74,0,0,1,.5-.15l.29-.08.06,0,.23-.06H36l.09,0,.16,0h0l.1,0,.2,0c.33-.06.64-.11,1-.15h.17l.12,0H38l.35,0h1.31a4.52,4.52,0,0,1,.53.06h0l.24,0h.08l.18,0L41,15h0l.23,0h0l.24.06.25.07.23.08.47.17.21.09h0l0,0,.17.08h0l.2.09.2.11h0l.16.08,0,0h0l0,0h0l.07.05h0l.07,0,.06,0,.1.06.08.06.12.08.12.08.09.06h0l.05,0,0,0,.1.08,0,0,.17.13.09.08.09.08h0L45,17h0s0,0,0,0l.06.05,0,0,0,0a.23.23,0,0,1,.07.07l0,0,.08.09,0,0s0,0,0,0l0,.06,0,0,.07.08.06.06h0l.06.07.07.08,0,0a.18.18,0,0,0,0,.07h0a.46.46,0,0,1,.07.07l0,0,0,0,0,.05,0,.06.09.12a.1.1,0,0,1,0,.05l0,0,.11.15h0v0s0,0,0,0l.1.14h0l.06.09,0,0,0,.07,0,0a.56.56,0,0,0,0,.08l.05.09,0,0,0,.05a.75.75,0,0,0,.07.12.41.41,0,0,0,.05.09c0,.05,0,.1.08.14s0,0,0,0a.47.47,0,0,1,.05.1.67.67,0,0,1,.06.12.31.31,0,0,1,0,.1l0,0,.07.15s0,.07.05.1l.06.13a1,1,0,0,0,.07.15l.05.12v0l0,.09,0,.06,0,.12.07.18s0,0,0,0a.14.14,0,0,1,0,.06l0,.06a.49.49,0,0,0,0,.11.14.14,0,0,0,0,.06l0,.05h0L48,22c0,.06,0,.11.05.16l0,.07v0l0,.07a.14.14,0,0,0,0,.06.29.29,0,0,0,0,.09l0,.11s0,0,0,.05l0,.1,0,.15v0h0l0,.13,0,.05s0,.05,0,.08a.09.09,0,0,1,0,.05h0l0,.11s0,.07,0,.11a0,0,0,0,0,0,0v.1s0,0,0,.06,0,.09,0,.14a.51.51,0,0,1,0,.13s0,0,0,0,0,.05,0,.08v0h0v0a.13.13,0,0,1,0,.06.28.28,0,0,1,0,.09v.08h0s0,.08,0,.12,0,.07,0,.1a.09.09,0,0,0,0,.05c0,.05,0,.09,0,.14v0c0,.08,0,.15,0,.22h0a.11.11,0,0,1,0,.05.15.15,0,0,0,0,.07c0,.06,0,.12,0,.18a.22.22,0,0,1,0,.08s0,.06,0,.09,0,.14,0,.22v0s0,.05,0,.08v.08a1.34,1.34,0,0,1,0,.2c0,.08,0,.16,0,.24v.17s0,0,0,0v.19c0,.06,0,.13,0,.19v.22h0v.71c0,.07,0,.15,0,.23v.18a1.34,1.34,0,0,0,0,.2v.19c0,.06,0,.12,0,.18V29c0,.05,0,.11,0,.16s0,.19,0,.29,0,0,0,.08,0,.08,0,.11v.07a.06.06,0,0,0,0,0c0,.16,0,.32-.05.47l0,.26-.06.54,0,.2c0,.05,0,.09,0,.14s0,.2,0,.3l-.06.4s0,.05,0,.08,0,.06,0,.09,0,.05,0,.08,0,.05,0,.08l0,.15h0l-.06.3s0,0,0,.05,0,.16-.05.24a2,2,0,0,1,0,.24h0l-.06.27c0,.07,0,.13,0,.2l-.09.35c0,.07,0,.13,0,.19l0,.09h0a2.29,2.29,0,0,1-.07.28l-.09.35-.21.76a.75.75,0,0,0,0,.16s0,.08,0,.11l0,.11c0,.05,0,.09,0,.13-.06.2-.13.4-.19.59a.08.08,0,0,1,0,0c0,.06,0,.12-.05.18s0,0,0,0a.88.88,0,0,0-.05.15h0a.14.14,0,0,1,0,.06v0s0,0,0,0h0l-.09.27s0,0,0,0l-.08.23c0,.07-.05.14-.08.22l-.15.4s0,0,0,0l0,.08,0,.08h0c0,.09-.07.19-.11.28l-.09.23,0,0-.15.38s-.05.11-.07.17-.17.38-.25.58a2,2,0,0,1-.1.21s0,0,0,0a1.89,1.89,0,0,1-.11.25l-.13.3v0l-.12.25c0,.09-.09.17-.13.27l-.13.26-.13.27h0c-.13.27-.27.53-.41.8h0l-.28.53L44,44a.56.56,0,0,1,0,.08c0,.07-.07.14-.11.2a.75.75,0,0,1-.07.12.64.64,0,0,1-.08.14l-.06.11c-.09.16-.18.32-.28.48l-.11.19,0,.06-.09.15-.18.3-.15.25a.22.22,0,0,0,0,.08l0-.08,3.58,2.38a56.09,56.09,0,0,0,4.51-9l0-.09c.22-.56.43-1.12.63-1.69,0-.1.07-.21.11-.31A40.69,40.69,0,0,0,54,24.29c0-7.26-2.58-12.36-6.71-14.76" fill="#f8c0b9"/><path d="M48.7,27.17v0h0v0c0-.13,0-.26,0-.38v-.19s0,0,0,0v-.35c0-.05,0-.11,0-.17a.28.28,0,0,0,0-.09v-.08s0-.06,0-.08v0c0-.1,0-.2,0-.3s0-.25,0-.37a.11.11,0,0,0,0-.05h0c0-.07,0-.14,0-.22v0c0-.05,0-.09,0-.14a.09.09,0,0,1,0-.05s0-.06,0-.1,0-.08,0-.12h0v-.08a.28.28,0,0,0,0-.09.13.13,0,0,0,0-.06v0s0-.06,0-.08,0,0,0,0a2,2,0,0,0,0-.24v0a.43.43,0,0,1,0-.05s0,0,0,0,0,0,0-.07a0,0,0,0,1,0,0s0-.08,0-.11l0-.11h0a.09.09,0,0,0,0-.05s0-.05,0-.08l0-.05,0-.13h0v0l0-.15,0-.1s0,0,0-.05l0-.11a.29.29,0,0,1,0-.09.14.14,0,0,1,0-.06l0-.07v0l0-.07s0-.1-.05-.16l-.18-.56h0l0-.05a.14.14,0,0,1,0-.06.49.49,0,0,1,0-.11l0-.06a.14.14,0,0,0,0-.06s0,0,0,0l-.07-.18,0-.12,0-.06,0-.09v0l-.05-.12a1,1,0,0,1-.07-.15l-.06-.13s0-.07-.05-.1l-.07-.15,0,0a.31.31,0,0,0,0-.1.67.67,0,0,0-.06-.12.47.47,0,0,0-.05-.1s0,0,0,0-.05-.09-.08-.14a.41.41,0,0,1-.05-.09.75.75,0,0,1-.07-.12l0-.05,0,0L46.65,19a.56.56,0,0,1,0-.08l0,0,0-.07,0,0-.06-.09h0l-.1-.14s0,0,0,0v0h0l-.11-.15,0,0a.1.1,0,0,0,0-.05l-.09-.12,0-.06,0-.05,0,0,0,0a.46.46,0,0,0-.07-.07h0a.18.18,0,0,1,0-.07l0,0-.07-.08-.06-.07h0l-.06-.06-.07-.08,0,0,0-.06s0,0,0,0l0,0-.08-.09,0,0a.23.23,0,0,0-.07-.07l0,0,0,0-.06-.05,0,0,0,0h0l-.13-.12h0l-.09-.08-.09-.08-.17-.13,0,0-.1-.08,0,0-.05,0h0l-.09-.06-.12-.08L44,16.21l-.08-.06-.1-.06-.06,0-.07,0h0L43.55,16h0l0,0h0l-.2-.11h0l-.2-.11-.2-.09h0l-.17-.08,0,0h0l-.21-.09-.47-.17-.23-.08-.25-.07L41.2,15h0L41,15h0l-.25,0-.18,0h-.08l-.24,0h0a4.52,4.52,0,0,0-.53-.06H38.4l-.46,0h-.46c-.32,0-.63.09-1,.15l-.2,0-.1,0h0l-.16,0-.09,0h-.07l-.23.06-.06,0-.29.08a4.74,4.74,0,0,0-.5.15l-.76.26-.51.2-.26.11L33,16.1l-.47.21-.15.08-.29.14-.29.14-.29.16-.29.16-.15.08-.19.11-.2.11-.1.07-.15.09-.23.14-.24.15a3.28,3.28,0,0,0-.31.2l-.23.15-.12.08-.26.18-.3.21-.15.11-.15.11h0l0,0-.31.23h0l-.34.26h0l-.33.27-.11.08-.24.2L27,20l-.14.12-.23.19,0,0-.27.24,0,0L26,20.8l-.36.33-.29.27-.33.32-.28.28-.3.31-.23.23-.07.08-.3.32,0,0c-.09.09-.17.19-.26.29l-.27.3-.05.05-.26.3-.32.37-.25.3c-.09.11-.18.23-.28.34l-.21.27-.11.13a3.25,3.25,0,0,1-.23.29c-.08.12-.17.23-.25.34s-.13.16-.19.25l-.12.17-.05.06-.18.25-.26.36,0,.05-.22.32c-.08.12-.17.24-.25.37l0,0-.21.32c-.08.11-.15.23-.22.34l-.06.09-.21.32-.22.36-.05.07c-.06.11-.13.22-.2.33s-.15.26-.23.39l-.22.38-.18.32-.08.14-.18.32-.22.41,0,.05c-.06.11-.12.22-.17.33l-.21.4c-.07.13-.13.27-.2.4l-.18.36a.54.54,0,0,1-.05.11c-.06.12-.12.25-.17.37s-.12.24-.17.37a.25.25,0,0,0,0,.07l-.15.33-.18.41-.17.41-.15.36v0c-.07.16-.13.33-.2.49v0l-.12.32-.08.2-.08.21-.15.41-.12.36s0,0,0,0l-.14.42-.12.36,0,.1c0,.12-.08.24-.11.37s-.08.24-.11.36l0,0c0,.12-.06.24-.1.36v0l0,.12-.09.33-.11.41-.09.37s0,0,0,.07v0l-.09.37,0,.17,0,.09a.83.83,0,0,0,0,.15c0,.13,0,.26-.08.39s0,0,0,.05,0,.23-.07.35,0,.05,0,.08,0,.24-.07.37l-.06.37a.06.06,0,0,1,0,0c0,.12,0,.24-.05.35s0,.17,0,.26h0c0,.1,0,.2,0,.3s0,.2,0,.3h0a1.11,1.11,0,0,1,0,.19,1.37,1.37,0,0,1,0,.19h0l0,.36a.13.13,0,0,0,0,.06c0,.09,0,.17,0,.25s0,.09,0,.13,0,.18,0,.27,0,.11,0,.16v0c0,.06,0,.13,0,.19a.66.66,0,0,1,0,.14c0,.1,0,.21,0,.31v.3a1,1,0,0,0,0,.17v.74s0,0,0,.07v.2a.49.49,0,0,0,0,.12,2.09,2.09,0,0,0,0,.25,1.27,1.27,0,0,0,0,.2h0v.1c0,.06,0,.13,0,.19v.07c0,.07,0,.14,0,.21l0,.3s0,.11,0,.16,0,0,0,0v.06l0,.21,0,.27c0,.09,0,.17,0,.25v0s0,.07,0,.1,0,.11,0,.16a.59.59,0,0,1,0,.13l.06.32.06.29a1.16,1.16,0,0,1,0,.18.74.74,0,0,0,0,.14.09.09,0,0,0,0,0c0,.06,0,.12,0,.18v0l0,.15s0,.1.05.15v.07a.14.14,0,0,1,0,.06.83.83,0,0,1,0,.15.56.56,0,0,1,0,.12,1.18,1.18,0,0,0,.07.2l0,.09,0,0a.64.64,0,0,0,.06.18.24.24,0,0,0,0,.08l0,0,0,.09v0a.61.61,0,0,0,.05.12,2,2,0,0,0,.08.22v0a2.44,2.44,0,0,1,.1.24,2,2,0,0,0,.1.21.69.69,0,0,0,.05.13l.09.18a.8.8,0,0,0,.08.16l0,.06a.59.59,0,0,0,0,.08l.11.21.06.11.06.1h0l.1.16v0h0a.08.08,0,0,0,0,0l0,0h0s0,0,0,0a.21.21,0,0,1,0,.06l0,.05.07.1s0,0,0,0l.08.12.15.22.11.15.09.12,0,0a.08.08,0,0,0,0,0l.06.08,0,0,.06.09a.27.27,0,0,1,.07.08l0,0,0,0,.11.13v0l.06,0,.05.06a0,0,0,0,0,0,0l.09.1.05.05.11.11h0l.07.07.12.11.15.14.19.16a4.08,4.08,0,0,0,.39.31l.09.07.09.06,0,0L18,59l.21.13.1.07.09,0,0,0,.21.12h0l.15.08.08,0,.19.1.14.06.09,0h0l.08,0h0l.09,0,.1,0,.09,0,.08,0,.24.09h0l.13,0,.12,0h0l.08,0,.1,0,.07,0,.21.05h0l.24,0,.15,0,.09,0h.08l.13,0h0l.19,0h1.89l.45,0,.23,0,.23,0,.24,0,.24,0,.24,0,.21,0,.07,0,.18,0h0l.19,0,.31-.08.2,0h0l.24-.07.25-.07.25-.08.26-.08.25-.09.51-.19.52-.21,1-.48.57-.29.22-.12.31-.17L31,58l.21-.13.22-.12.21-.14.21-.13.22-.13.21-.14.43-.29.2-.14.21-.15.2-.15c.44-.31.86-.64,1.28-1l.18-.15.38-.32.19-.16.29-.25.21-.19.18-.16a.23.23,0,0,1,.07-.07l.13-.12c.5-.47,1-.95,1.46-1.45h0l.09-.09.11-.12h0c.13-.14.26-.27.39-.42l.19-.21h0c.07-.07.13-.15.19-.22l.2-.22.29-.34.09-.1.05-.06.09-.11.05-.06.13-.16.06-.07.18-.22L40,50l.08-.1.12-.15a1.71,1.71,0,0,1,.11-.14l0-.07.18-.24.36-.47.26-.36.26-.36.12-.17.11-.16h0L38,45.33l-.38.51-.19.25-.15.19,0,.06-.15.19-.25.3c-.11.14-.23.27-.34.4-.3.34-.6.67-.91,1l-.2.21c-.3.3-.59.59-.9.86a2.09,2.09,0,0,1-.22.2l0,0-.18.15-.22.2-.2.16,0,0-.24.19,0,0-.2.15-.18.14a3.15,3.15,0,0,1-.29.22l-.24.17,0,0-.22.15-.23.16h0l-.23.15-.25.16-.23.14h0l-.24.14-.37.21-.75.38-.13.06-.09,0-.33.14-.13.06-.62.23-.18.07-.18,0-.18.06-.68.18-.51.1-.16,0-.32,0-.13,0c-.29,0-.57,0-.84,0h-.91l-.14,0h-.1l-.18,0h0l-.15,0h0l-.06,0h-.23l0,0-.07,0h-.05l-.12,0h0l-.14,0h0l-.16-.06h0l-.05,0-.05,0-.1-.05h-.05L22.51,53h0l-.11-.06,0,0-.07,0-.1-.06,0,0h0L22,52.69h0l-.11-.07-.14-.09-.12-.09h0l-.06,0h0l-.07-.06-.14-.11-.13-.12-.33-.31,0,0-.1-.11-.07-.08-.09-.1-.08-.1-.06-.07-.05-.07-.08-.1v0l-.11-.14-.06-.1h0l-.14-.22a.75.75,0,0,1-.07-.12h0l0,0a.21.21,0,0,1,0-.06h0l-.06-.1v0h0l0-.06,0,0L19.57,50a.54.54,0,0,0-.05-.11l0,0-.06-.14v0a.84.84,0,0,1-.06-.14l0,0,0-.07,0-.09a.2.2,0,0,1,0-.08l-.06-.17v0s0-.08-.05-.13l-.06-.2L19,48.56s0,0,0-.06a.43.43,0,0,1,0,0s0-.08,0-.13a1.46,1.46,0,0,1-.05-.2h0a.36.36,0,0,0,0-.1l0-.11,0-.08s0,0,0-.07h0l0-.08,0-.07a.5.5,0,0,0,0-.12l0-.15s0-.08,0-.12h0l0-.19a1.57,1.57,0,0,1,0-.23l0-.23a1,1,0,0,0,0-.17s0-.11,0-.16v-.1s0,0,0-.06V46a.34.34,0,0,1,0-.1v0a.86.86,0,0,1,0-.16V45.5s0,0,0-.07v-.65c0-.3,0-.6,0-.91,0-.09,0-.17,0-.26h0a2.64,2.64,0,0,0,0-.28l.06-.59,0-.27h0c0-.1,0-.19,0-.29s0-.19,0-.29c.07-.45.15-.9.25-1.35,0-.07,0-.13,0-.2s0-.12.05-.19l.09-.39c0-.1.05-.19.08-.29.07-.29.16-.58.24-.88l.06-.19c0-.07.05-.13.07-.2l.06-.19c.11-.32.22-.65.34-1l.14-.39c0-.06.05-.13.08-.19s0-.13.08-.19a1.67,1.67,0,0,1,.08-.2c0-.06,0-.12.08-.19l.12-.28.12-.29.09-.19.09-.19.09-.19.18-.38c.06-.13.12-.25.19-.38.15-.31.32-.62.49-.93s.27-.49.42-.73l0-.06.07-.12.22-.36.11-.18a1.74,1.74,0,0,0,.11-.18c.08-.11.15-.23.23-.35l.12-.18a1,1,0,0,0,.11-.17l.36-.52c.08-.11.16-.23.25-.34l.13-.18.12-.16.12-.16c.11-.14.21-.28.32-.41l.32-.41.14-.16.13-.16.27-.31.12-.13.15-.18.14-.15.15-.17.12-.13L26.2,27a.93.93,0,0,0,.14-.14l.29-.29.21-.21.66-.62.15-.13.3-.26a.69.69,0,0,1,.13-.11h0l0,0,.3-.25.15-.12.16-.12.16-.14.14-.1c.36-.27.73-.53,1.1-.77l.16-.1.16-.1.16-.1.32-.19.56-.31.38-.19.55-.26.36-.15a10,10,0,0,1,3.75-.8h.92l.1,0h.1l.18,0,.11,0H38l.07,0,.07,0h0l.13,0h0l.11,0h0l.09,0h.11l.21.08L39,22h0l.06,0h0l.1,0h0l.15.07.08,0,.09,0,.07,0,.09.05,0,0h0l.14.08.07.05.33.22h0l.08.05.24.19h0l.12.1.22.2.07.07.18.19h0l.07.08.17.19a.86.86,0,0,0,.07.1l0,.05h0l.06.08v0l0,.05h0l0,.07h0l0,0,0,.05,0,0,.14.22.06.09.06.11,0,0h0a.83.83,0,0,1,.07.13l.06.1.06.12.06.13.06.12.06.13.06.13a.69.69,0,0,1,0,.13l0,.12h0c0,.09.07.18.1.28l0,.08,0,.07a.14.14,0,0,1,0,.06l0,.14,0,.07a1.21,1.21,0,0,1,.05.18l0,.11c0,.1.06.2.08.3l0,.12h0v0l0,.14h0a.17.17,0,0,1,0,.07s0,0,0,.06,0,.2,0,.3,0,0,0,0,0,.15,0,.23v0s0,.06,0,.09,0,.06,0,.08l0,.23c0,.06,0,.11,0,.17v0c0,.05,0,.11,0,.16v0s0,.08,0,.12,0,.13,0,.2,0,.13,0,.19a.66.66,0,0,0,0,.14v.21a1.77,1.77,0,0,1,0,.23v.29c0,.29,0,.59,0,.89a1.15,1.15,0,0,1,0,.19v.09c0,.06,0,.12,0,.19s0,.37-.05.56,0,.11,0,.16a19.5,19.5,0,0,1-.32,2,1.42,1.42,0,0,1,0,.2c0,.13-.05.26-.08.38s-.07.26-.1.39c-.11.46-.24.91-.38,1.37,0,.11-.07.22-.11.34l-.1.3c-.09.27-.19.54-.29.81l-.07.19a2.77,2.77,0,0,0-.1.26l-.21.49a1.86,1.86,0,0,1-.1.25c-.28.66-.59,1.32-.92,2l-.12.22c0,.09-.09.18-.14.27l-.12.23-.35.62a2.39,2.39,0,0,1-.13.21l-.15.26-.31.5h0l3.59,2.39a.22.22,0,0,0,0,.08l0-.08.15-.25.18-.3.09-.15,0-.06.11-.19c.1-.16.19-.32.28-.48l.06-.11a.64.64,0,0,0,.08-.14.75.75,0,0,0,.07-.12c0-.06.07-.13.11-.2A.56.56,0,0,0,44,44l.13-.24.28-.53h0c.14-.27.28-.53.41-.8h0l.13-.27.13-.26c0-.1.09-.18.13-.27l.12-.25v0l.13-.3a1.89,1.89,0,0,0,.11-.25s0,0,0,0a2,2,0,0,0,.1-.21c.08-.2.17-.39.25-.58s0-.12.07-.17l.15-.38,0,0h0l.09-.23c0-.09.07-.19.11-.28h0l.06-.16s0,0,0,0l0-.07.12-.33c0-.08,0-.15.08-.22l.08-.23s0,0,0,0l.09-.27h0v0a.32.32,0,0,0,0-.09h0a.88.88,0,0,1,.05-.15s0,0,0,0,0-.12.05-.18a.08.08,0,0,0,0,0c.06-.19.13-.39.19-.59,0,0,0-.08,0-.13l0-.11s0-.07,0-.11a.75.75,0,0,1,0-.16l.21-.76.09-.35a2.29,2.29,0,0,0,.07-.28h0l0-.09c0-.06,0-.12,0-.19l.09-.35c0-.07,0-.13,0-.2l.06-.27a2,2,0,0,0,0-.24c0-.08,0-.16.05-.24s0,0,0-.05l.06-.3,0-.15,0-.16s0-.06,0-.09,0-.06,0-.08l.06-.4c0-.1,0-.2,0-.3s0-.09,0-.14l0-.2c0-.05,0-.09,0-.14s0-.26,0-.39h0l0-.26s0-.08,0-.12v0l0-.33a.06.06,0,0,1,0,0c0-.06,0-.12,0-.18s0-.05,0-.08a.57.57,0,0,1,0-.13s0-.11,0-.16,0-.11,0-.16v-.15c0-.06,0-.12,0-.18v-.19a1.34,1.34,0,0,1,0-.2v-.18c0-.08,0-.16,0-.23v-.69" fill="#f3978b"/><path d="M14.65,65.62,9.23,62.47C5.1,60.07,2.54,55,2.52,47.71,2.48,33.11,12.75,15.32,25.46,8l5.41,3.15c-12.7,7.34-23,25.12-22.93,39.73,0,7.26,2.58,12.36,6.71,14.76" fill="#f8c0b9"/><path d="M14.65,65.62,9.23,62.47A12.15,12.15,0,0,1,4.36,57a21.79,21.79,0,0,1-1.84-9.25A38,38,0,0,1,3.85,38l5.42,3.15a37.52,37.52,0,0,0-1.33,9.73,21.8,21.8,0,0,0,1.83,9.25,12.22,12.22,0,0,0,4.88,5.51" fill="#f3978b"/><path d="M41.85,6.4l5.42,3.15a11.71,11.71,0,0,0-4.09-1.43c-3.69-.55-7.94.49-12.31,3a44.66,44.66,0,0,0-14,13.58l-5.42-3.14A44.62,44.62,0,0,1,25.46,8c4.36-2.52,8.62-3.56,12.3-3A11.84,11.84,0,0,1,41.85,6.4" fill="#facec8"/><path d="M11,35.83,5.57,32.68a55,55,0,0,1,5.87-11.11l5.42,3.14A54.85,54.85,0,0,0,11,35.83" fill="#f5aca2"/><path d="M9.27,41.13,3.85,38c.08-.33.13-.51.18-.67.41-1.47.9-3,1.46-4.41l5.42,3.15a44.43,44.43,0,0,0-1.46,4.4c0,.17-.1.35-.18.68" fill="#f5aca2"/><path d="M10.91,36.05,5.49,32.9c0-.07,0-.14.08-.22L11,35.83a2,2,0,0,0-.08.22" fill="#f5aca2"/><path d="M31.62,29.14a6.4,6.4,0,0,1,2.28-.83,3.48,3.48,0,0,1,1.91.22.66.66,0,0,1,.39.68A1.8,1.8,0,0,1,36,30a1.3,1.3,0,0,1-.47.55.8.8,0,0,1-.34.11,1.27,1.27,0,0,1-.33,0,4.55,4.55,0,0,0-1.63-.19,3.84,3.84,0,0,0-1.53.53,4,4,0,0,0-1.5,1.52,4.55,4.55,0,0,0-.55,2.3v2.82l2.94-1.7a.5.5,0,0,1,.49-.06.46.46,0,0,1,.19.43,1.18,1.18,0,0,1-.19.65,1.27,1.27,0,0,1-.49.51l-2.94,1.7v5.27l5.59-3.23A.86.86,0,0,1,36,41c.16.07.24.26.24.56a1.67,1.67,0,0,1-.95,1.52l-8.61,5q-1,.55-1-.42a1.57,1.57,0,0,1,.24-.84,2,2,0,0,1,.71-.66l1-.58V40.31l-1.29.75a.5.5,0,0,1-.49.06.44.44,0,0,1-.2-.43,1.27,1.27,0,0,1,.19-.65,1.34,1.34,0,0,1,.49-.51l1.3-.75v-3A7.27,7.27,0,0,1,28.72,32a8,8,0,0,1,2.9-2.86" fill="#ffb8ad"/><path d="M36.05,40.91a.92.92,0,0,0-.81.15l0,0-1.9,1.1-3.47,2V39.24l1.44-.83,1.43-.82a1.49,1.49,0,0,0,.54-.57,1.37,1.37,0,0,0,.22-.72.61.61,0,0,0-.27-.56.68.68,0,0,0-.64.06l-2.72,1.58V34.81a4.41,4.41,0,0,1,.54-2.23,3.84,3.84,0,0,1,1.44-1.47,3.53,3.53,0,0,1,1.47-.5,4.27,4.27,0,0,1,1.58.18h0a1.63,1.63,0,0,0,.38,0,.92.92,0,0,0,.39-.14,1.41,1.41,0,0,0,.53-.61,2,2,0,0,0,.2-.86.79.79,0,0,0-.47-.81,3.59,3.59,0,0,0-2-.23,6.43,6.43,0,0,0-2.33.85,8,8,0,0,0-3,2.91,7.53,7.53,0,0,0-1.08,3.88V38.7l-1.22.7a1.53,1.53,0,0,0-.54.56,1.5,1.5,0,0,0-.22.73.59.59,0,0,0,.27.55.63.63,0,0,0,.64-.06l1.08-.62V45.5l-.95.55a2.09,2.09,0,0,0-.76.71,1.67,1.67,0,0,0-.27.91.74.74,0,0,0,.29.7.49.49,0,0,0,.25.06,1.32,1.32,0,0,0,.64-.22l8.37-4.83.24-.14a1.84,1.84,0,0,0,1-1.43,1.48,1.48,0,0,0,0-.21q0-.56-.33-.69M26,48.12c-.11-.06-.14-.28-.14-.45a1.4,1.4,0,0,1,.22-.76,1.9,1.9,0,0,1,.67-.61l1.09-.63,0-5.61-1.51.88A.34.34,0,0,1,26,41s-.13-.07-.13-.3a1.15,1.15,0,0,1,.18-.58,1.2,1.2,0,0,1,.43-.46l1.37-.78V35.81a7.27,7.27,0,0,1,1-3.73,7.89,7.89,0,0,1,2.86-2.82,6.2,6.2,0,0,1,2.22-.81,3.3,3.3,0,0,1,1.83.22c.13,0,.3.16.31.54a1.64,1.64,0,0,1-.18.73,1.19,1.19,0,0,1-.42.5.72.72,0,0,1-.27.09,1,1,0,0,1-.29,0,4.52,4.52,0,0,0-1.67-.19,3.91,3.91,0,0,0-1.59.54,4.17,4.17,0,0,0-1.55,1.57,4.72,4.72,0,0,0-.58,2.38v3.07l.5-.29,2.66-1.54c.22-.12.32-.07.35,0s.12.07.12.3a1.23,1.23,0,0,1-.17.58,1.3,1.3,0,0,1-.44.46L31,38.23l-1.46.85v5.6l4-2.33,1.77-1,.17-.09a.59.59,0,0,1,.42-.07c.11,0,.16.19.16.43v0A1.55,1.55,0,0,1,35.21,43l-.37.21L26.6,48c-.29.17-.5.22-.61.16" fill="#ffb8ad"/><path d="M46.34,48.44c-.35.57-.72,1.13-1.09,1.68l-3.59-2.39.11-.16.37-.55.09-.14.26-.4.16-.26.06-.08,0-.08Z" fill="#ff9a8a"/><path d="M42.76,46.06a.22.22,0,0,0,0,.08l-.06.08-.16.26-.26.4-.09.14-.37.55-.11.16h0L38,45.33l.28-.39,0,0,.2-.29.06-.09.26-.38,0-.05.23-.36,0,0Z" fill="#ff9a8a"/><path d="M39.17,43.67l0,0-.23.36,0,.05-.26.38-.06.09-.2.29,0,0-.28.39-1.59-1.06-1.34-.89.24-.14a1.84,1.84,0,0,0,1-1.43l1.17.78Z" fill="#ffd7d0"/><path d="M35.24,41.06l0,0-1.9,1.1-.45-.3-2-1.34h0l-.92-.61-.1-.07v-.62l1.44-.83,1.18.78h0l.31.2L34,40.2Z" fill="#ffd7d0"/><path d="M31.25,38.41l-1.44.83v.62l-.29-.19-.42-.28,0,0h0a.93.93,0,0,1-.21-.5h0a.88.88,0,0,1,.05-.15s0-.11.07-.17a2.63,2.63,0,0,1,.18-.3,2.46,2.46,0,0,1,.35-.43.87.87,0,0,1,.44-.27l.06,0,.41.27.32.21.24.16.13.09Z" fill="#ffa89b"/><path d="M36.37,41.81a1.84,1.84,0,0,1-1,1.43l-.24.14L35,43.29l-.14-.09-1.27-.85-.14-.08-.13-.09,1.9-1.1,0,0,.13.09.14.09.58.38.14.1Z" fill="#ffa89b"/><path d="M42.76,46.06l0,.08a.22.22,0,0,1,0-.08Z" fill="#ff9a8a"/><path d="M66,34.5l-7.69.59a.26.26,0,0,1-.24-.4l3-4.59a.27.27,0,0,1,.2-.11l7.69-.6a.27.27,0,0,1,.24.41l-3,4.58a.28.28,0,0,1-.2.12" fill="#dbdce7"/><path d="M66.19,36.48l-7.69.6a.26.26,0,0,0-.17.44L62,41.58a.24.24,0,0,0,.21.08l7.7-.59a.26.26,0,0,0,.17-.44l-3.68-4.06a.29.29,0,0,0-.22-.09" fill="#dbdce7"/><path d="M68.14,35.35a1,1,0,0,1-.92,1.07L29.05,39.25l0,0h0a.87.87,0,0,1-.25-.48h0a3.71,3.71,0,0,1-.07-.44c-.06-.79.19-1,.19-1l38.17-2.82a1,1,0,0,1,1.08.92" fill="#9597b9"/><g opacity="0.1"><g clip-path="url(#a)"><path d="M42.76,46.06a.22.22,0,0,0,0,.08l-.06.08-.16.26-.26.4-.09.14-.37.55-.11.16h0L38,45.33l.28-.39,0,0,.2-.29.06-.09.26-.38,0-.05.23-.36,0,0Z" fill="#4c508a"/></g></g></svg>