<svg xmlns="http://www.w3.org/2000/svg" width="25.4mm" height="25.4mm" viewBox="0 0 72 72"><title>Icon</title><path d="M49.18,16.29V22H49V16.27l.18,0" fill="#f3978b"/><path d="M49,16.27V22a35,35,0,0,0-7.94.3V16.58A35,35,0,0,1,49,16.27" fill="#f3978b"/><path d="M41.06,16.58v5.73a29.53,29.53,0,0,0-3,.62l-.37.09,0-5.73.37-.1c.94-.24,1.92-.44,3-.61" fill="#f3978b"/><path d="M66.93,28.11v5.73a7.27,7.27,0,0,0-.49-2.61,12.21,12.21,0,0,0-5.56-5.84A28,28,0,0,0,49.17,22V16.29a28.12,28.12,0,0,1,11.7,3.36,12.22,12.22,0,0,1,5.56,5.85,7.06,7.06,0,0,1,.49,2.61" fill="#f3978b"/><path d="M37.69,17.29l0,5.73a24.33,24.33,0,0,0-5.8,2.37c-3.86,2.24-6,5.22-6,8.39l0-5.73c0-3.17,2.1-6.15,6-8.39a23.76,23.76,0,0,1,5.8-2.37" fill="#f3978b"/><path d="M60.88,22.67a12.17,12.17,0,0,1,5.54,5.78,7.18,7.18,0,0,1,0,5.39,11.41,11.41,0,0,1-4.22,4.87l-.59.39-.6.36A29.21,29.21,0,0,1,46.5,42.94,29.45,29.45,0,0,1,32,39.46c-3.88-2.24-6-5.22-6.05-8.4s2.1-6.15,6-8.39a23.63,23.63,0,0,1,5.72-2.34l.45-.12a27.26,27.26,0,0,1,2.91-.6,34.87,34.87,0,0,1,8-.32h.18a28,28,0,0,1,11.7,3.37" fill="#cde8e5"/><path d="M26.32,36.13a7.54,7.54,0,0,1-.41-2.35l0-5.73a7,7,0,0,0,.41,2.35c0,1.91,0,3.82,0,5.73" fill="#cde8e5"/><path d="M66,37.27c0-1.91,0-3.82,0-5.73q.18-.36.33-.72a7,7,0,0,0,.54-2.69l0,5.73a7.11,7.11,0,0,1-.54,2.7c-.1.23-.21.47-.33.71" fill="#cde8e5"/><path d="M32,42.18c-2.91-1.68-4.85-3.77-5.65-6,0-1.91,0-3.82,0-5.73.8,2.28,2.73,4.37,5.64,6.05A29.56,29.56,0,0,0,46.5,39.93,29.32,29.32,0,0,0,61,36.45l.6-.36.59-.4a12,12,0,0,0,3.89-4.15c0,1.91,0,3.82,0,5.73a11.83,11.83,0,0,1-3.88,4.15l-.6.4c-.18.12-.38.23-.6.36a29.21,29.21,0,0,1-14.48,3.48A29.52,29.52,0,0,1,32,42.18" fill="#cde8e5"/><path d="M66.39,33.84a11.41,11.41,0,0,1-4.22,4.87l-.59.39-.6.36A29.21,29.21,0,0,1,46.5,42.94,29.45,29.45,0,0,1,32,39.46a16.57,16.57,0,0,1-3-2.22,32.65,32.65,0,0,0,10.5,1.66,29.34,29.34,0,0,0,14.48-3.47l.59-.37.6-.39a11.48,11.48,0,0,0,4.22-4.87,7.2,7.2,0,0,0,0-5.38,10.06,10.06,0,0,0-2.51-3.57,22.83,22.83,0,0,1,4,1.82,12.17,12.17,0,0,1,5.54,5.78,7.18,7.18,0,0,1,0,5.39" fill="#b6ddda"/><path d="M70.16,28.14v5.73A8.52,8.52,0,0,1,69.52,37a13.13,13.13,0,0,1-4.88,5.64l-.69.46,0-5.74c.22-.14.44-.28.68-.45a13.09,13.09,0,0,0,4.89-5.64,8.3,8.3,0,0,0,.62-3.12" fill="#f5aca2"/><path d="M48.12,41.77V47.5c-.54,0-1.08,0-1.63,0a39.55,39.55,0,0,1-8.93-1,29.24,29.24,0,0,1-7.87-3A16.26,16.26,0,0,1,24.45,39a8.94,8.94,0,0,1-1.77-5.18v-.06l0-5.67a9,9,0,0,0,1.76,5.18,16.48,16.48,0,0,0,5.24,4.55,29.37,29.37,0,0,0,7.87,3,39.7,39.7,0,0,0,8.94,1c.54,0,1.07,0,1.61,0" fill="#f3978b"/><path d="M46.5,39.93A29.32,29.32,0,0,0,61,36.45l.6-.36.59-.4a11.3,11.3,0,0,0,4.22-4.87,7.1,7.1,0,0,0,0-5.32,12.22,12.22,0,0,0-5.56-5.85,28.12,28.12,0,0,0-11.7-3.36l-.18,0a35,35,0,0,0-7.94.31c-1.08.17-2.06.37-3,.61l-.37.1a23.76,23.76,0,0,0-5.8,2.37c-3.86,2.24-6,5.22-6,8.39s2.17,6.16,6.05,8.4A29.56,29.56,0,0,0,46.5,39.93M64,37.35c-.21.14-.44.28-.7.43a29,29,0,0,1-7.83,3,39.55,39.55,0,0,1-8.93,1,39.7,39.7,0,0,1-8.94-1,29.37,29.37,0,0,1-7.87-3,16.48,16.48,0,0,1-5.24-4.55,8.61,8.61,0,0,1-.06-10.35,15.92,15.92,0,0,1,5.19-4.55,28.22,28.22,0,0,1,6.66-2.72l.49-.13a32,32,0,0,1,3.32-.68l.18,0a40.2,40.2,0,0,1,9.19-.35,32.58,32.58,0,0,1,13.73,3.91c3.2,1.84,5.41,4.16,6.41,6.69a8.27,8.27,0,0,1,0,6.24,13.09,13.09,0,0,1-4.89,5.64c-.24.17-.46.31-.68.45" fill="#f8c0b9"/><path d="M64,37.35l0,5.74-.69.42a28.71,28.71,0,0,1-7.84,3c-.54.12-1.08.24-1.63.34V41.14c.55-.1,1.1-.22,1.65-.34a29,29,0,0,0,7.83-3c.26-.15.49-.29.7-.43" fill="#facec8"/><path d="M53.79,41.14v5.73a37.69,37.69,0,0,1-5.67.63V41.77a37.69,37.69,0,0,0,5.67-.63" fill="#f5aca2"/><path d="M3.31,51.72l2.37-1.38L8.05,49l2.36-1.38,2.37-1.37,2.36-1.38,2.37-1.37,2.37-1.38,2.36-1.37,2.37-1.38L27,38a1.63,1.63,0,0,1,1.63.18L4.94,51.9a1.63,1.63,0,0,0-1.63-.18" fill="#f3978b"/><path d="M28.69,38.15a0,0,0,0,1,0,.05L5,52H4.94a0,0,0,0,1,0-.05L28.6,38.15h.09" fill="#f3978b"/><polygon points="30.87 41.74 30.86 42.31 7.21 56.06 7.21 55.49 30.87 41.74" fill="#f5ada3"/><path d="M7.21,56.06a1.35,1.35,0,0,1-.45,1.11.36.36,0,0,1-.12.08l-.09,0a1.49,1.49,0,0,1-.25.13l-.38.14a2.72,2.72,0,0,1-.33.07l-.15,0-.31,0a2.24,2.24,0,0,1-.45,0,1.65,1.65,0,0,1-.31,0l-.32-.07-.17-.06a2.78,2.78,0,0,1-.35-.14,2,2,0,0,1-.38-.22L2.93,57l-.16-.14a1.31,1.31,0,0,1-.23-.24,3,3,0,0,1-.27-.35,2.31,2.31,0,0,1-.18-.35,3,3,0,0,1-.16-.42c0-.11-.05-.25-.07-.37V55a1.77,1.77,0,0,1,0-.23.86.86,0,0,0,0,.27,1.78,1.78,0,0,0,.87,1,4.91,4.91,0,0,0,4.45,0" fill="#f3978b"/><path d="M1.84,54.76v-.57a1.58,1.58,0,0,0,.93,1.3,4.89,4.89,0,0,0,4.44,0v.57a4.91,4.91,0,0,1-4.45,0,1.59,1.59,0,0,1-.92-1.3" fill="#f3978b"/><path d="M1.84,54.19a1.77,1.77,0,0,1,0-.23,3.25,3.25,0,0,1,.08-.45A1.68,1.68,0,0,1,2,53.27a2.57,2.57,0,0,1,.19-.41,2.35,2.35,0,0,1,.24-.37,3.47,3.47,0,0,1,.25-.29A2.62,2.62,0,0,1,2.93,52a2.29,2.29,0,0,1,.38-.26,1.63,1.63,0,0,1,1.63.18,0,0,0,0,0,0,.05H5a4.6,4.6,0,0,1,2.18,3.54,4.89,4.89,0,0,1-4.44,0,1.58,1.58,0,0,1-.93-1.3" fill="#f3978b"/><polygon points="3.31 52.8 5.21 54.19 27.13 40.62 26.34 38.57 4.22 51.9 3.31 52.8" fill="#f3978b"/><path d="M30.87,42.31a1.34,1.34,0,0,1-.57,1.2l-2.36,1.37-2.37,1.38L23.2,47.63,20.84,49l-2.37,1.37-2.36,1.37-2.37,1.38L11.38,54.5,9,55.88,6.76,57.17l-.12.07-.09.06a1.49,1.49,0,0,1-.25.13l-.38.14a2.72,2.72,0,0,1-.33.07l-.15,0-.31,0a2.24,2.24,0,0,1-.45,0,1.65,1.65,0,0,1-.31,0l-.32-.07-.17-.06a2.78,2.78,0,0,1-.35-.14,2,2,0,0,1-.38-.22L2.93,57l-.16-.14a.88.88,0,0,1-.23-.24c-.45-.7.53-3,2.38-3.93L27.5,39.58Z" fill="#f5ada3"/><path d="M29.22,38.57a4.58,4.58,0,0,1,1.65,3.17L7.21,55.49c-1.26.92-3.63,1-4.15,0-.69-1.27,1.3-2.44,2.61-3.3,0,0,23.38-13.76,23.55-13.62" fill="#f7bcb4"/></svg>