<svg xmlns="http://www.w3.org/2000/svg" xmlns:xlink="http://www.w3.org/1999/xlink" width="25.4mm" height="25.4mm" viewBox="0 0 72 72"><defs><clipPath id="a"><rect x="4.42" y="4.34" width="51.55" height="63.53" fill="none"/></clipPath></defs><title>Icon</title><path d="M67.94,35.84c0,.27,0,.54,0,.81A31.92,31.92,0,0,1,38.25,67.82h-.1c-.64,0-1.28.06-1.93.06a31.28,31.28,0,0,1-8.14-1.07c-.45-.12-.91-.25-1.36-.39A31.68,31.68,0,0,1,12.59,57.2l-.36-.41A32,32,0,0,1,5.05,41.73c-.15-.79-.26-1.58-.35-2.38a33.94,33.94,0,0,1-.19-3.51,32.16,32.16,0,0,1,7.9-21.17h0A31.9,31.9,0,0,1,23.36,6.53,31.45,31.45,0,0,1,36.22,3.79c.67,0,1.32,0,2,.06A31.76,31.76,0,0,1,65.38,23.2a34.33,34.33,0,0,1,1.2,3.31l.18.63.15.58,0,.1c0,.2.1.4.14.6l.15.64a32.9,32.9,0,0,1,.71,6.78" fill="#b0dbd7"/><path d="M67.94,35.84a31.72,31.72,0,1,1-63.43,0A32.2,32.2,0,0,1,6.38,25l0-.08c.07-.21.14-.4.22-.6a31.75,31.75,0,0,1,2.06-4.37l.06-.11a32,32,0,0,1,8.14-9.4l.17-.14A31.47,31.47,0,0,1,53.17,8.75l.12.07A32.1,32.1,0,0,1,67.82,33.07q.06.7.09,1.41c0,.45,0,.9,0,1.36" fill="#b0dbd7"/><path d="M19.62,47.41S15.07,42,15.94,38.57,16.61,34,19.69,33c2.64-.82,3.67.09,4.5,1.43a21.59,21.59,0,0,0,5.57,5.27c3.51,2.29-.27,2.44.35,4.72,1.1,4-.48,2.66-1.85,5-1,1.75-1.21,3.67-1.68,4.61-1,1.94-3,3.18-2.5,5.48.47,2-.45,2.27-2.45.52-1.46-1.28-1.48-8.23-1.35-9.49a3.87,3.87,0,0,0-.66-3.15" fill="#afb1ca"/><path d="M67.91,34.48c-1.13-.35-2.85-2.58-3.24-4.13a6.31,6.31,0,0,0-1.4-3.09,4,4,0,0,1-.53-1.17h0a1.62,1.62,0,0,0-.45-.84,1.2,1.2,0,0,0-.77-.2,2.59,2.59,0,0,1-.84-.18c-.14-.05-.29-.1-.44-.17s-.51-.22-.77-.35a7,7,0,0,0-1.59-.58,1,1,0,0,0-1.08.3l0,0c-.32.47.27,1.29.94,1.5a.78.78,0,0,0,.21,0,3.19,3.19,0,0,0,.93-.17c.49-.12,1,0,1.48,1.26.12.29-.11.89-.56,1.55-.79,1.16-2.23,2.5-3.57,2.62a.21.21,0,0,1-.15,0,1.75,1.75,0,0,1-.44-.65c-.49-1-1-2.85-1.58-3.29s-.27.7.17,1.9h0a15.62,15.62,0,0,0,.68,1.61l.1.21h0a2.13,2.13,0,0,0,2.38,1.5l.26,0c.35.06.53.23.56.51a1.39,1.39,0,0,1,0,.48,1.55,1.55,0,0,1,0,.21h0a21.24,21.24,0,0,1-1.45,3.15,5.86,5.86,0,0,1-1.78,2.25,1.92,1.92,0,0,0-.37,1.2,7.63,7.63,0,0,0,.12,1.86v0a9.72,9.72,0,0,1,.22,2.18,3,3,0,0,1-.25,1,1.08,1.08,0,0,1-.12.24c-.42.77-1.13,1.76-1.71,3a9.63,9.63,0,0,0-.74,2.12,1.59,1.59,0,0,0-.06.3,3.15,3.15,0,0,1-2.18,2.52,4,4,0,0,1-1.58.22l-.39,0c-.71-.14-.81-.49-.66-1.63a2.09,2.09,0,0,0,0-.5c-.14-1-1-2.09-1.46-4.45,0-.29-.1-.59-.14-.91-.44-3.45,1.41-3.19.46-5.2a4.16,4.16,0,0,1-.23-.54v0a22.34,22.34,0,0,1-.71-3.24,2.31,2.31,0,0,0-1.42-1.76,3.56,3.56,0,0,0-1.86-.07,7.11,7.11,0,0,1-2,.06,3.19,3.19,0,0,1-.67-.19,2.25,2.25,0,0,1-.42-.24,3.24,3.24,0,0,1-1-1.07,9.2,9.2,0,0,1-.94-2.08,7.37,7.37,0,0,1-.26-1.1A9.8,9.8,0,0,1,37,25.86,9.45,9.45,0,0,1,41,20.6a9.66,9.66,0,0,1,1.6-.77,2.52,2.52,0,0,1,1.2-.21c.71.09.82.79,1.12,1.45a2.28,2.28,0,0,0,.47.73,2,2,0,0,0,.93.48,3.93,3.93,0,0,0,1.13.07l.66,0c.34,0,.75,0,1.19-.08a11,11,0,0,0,3.15-.58c.34-.17.45-.37.17-.63a1.89,1.89,0,0,0-.38-.26c-.77-.42-2.74-.29-2.08-1.64a3.79,3.79,0,0,1,.24-.39l.07-.09a1,1,0,0,1,1.24-.32,1.34,1.34,0,0,0,.73.14.62.62,0,0,0,.39-.31c.62-1,0-1.5-1.22-1.95a.87.87,0,0,0-.94.18l-.05.06c-.49.48-.74,1.42-1,1.71a1.68,1.68,0,0,1-.27.23,2.94,2.94,0,0,1-1,.47h0a1.22,1.22,0,0,1-.6,0,.78.78,0,0,1-.47-.27,2.67,2.67,0,0,0-1.25-.7,6.53,6.53,0,0,0-1.12-.24,7.16,7.16,0,0,0-1.22,0,1.42,1.42,0,0,0-1.08.54,4.62,4.62,0,0,1-2.07,1.4,3.52,3.52,0,0,1-1,.26c-.95.06-.62-.85-.62-1.76,0-.74,1-1.71,1.91-2.32a3.55,3.55,0,0,1,1.24-.6.67.67,0,0,0,.45-.29c.49-.59.81-1.94,1.57-2.36,1-.53.78.71,1.83.71a1.73,1.73,0,0,0,1.75-1.59.5.5,0,0,0,0-.22.39.39,0,0,0-.36-.22,2,2,0,0,0-.8.13,3.14,3.14,0,0,0-.66.31,1.68,1.68,0,0,1-.9.18,5.67,5.67,0,0,1-.58,0,1.74,1.74,0,0,1-1.14-.57.14.14,0,0,1,0-.06c-.26-.64,1-1.91,2.47-2.68s5,.17,6.47.79a1.49,1.49,0,0,0,.57.13A.5.5,0,0,0,53.11,9a1,1,0,0,0,.06-.25l.12.07A32.1,32.1,0,0,1,67.82,33.07q.06.7.09,1.41" fill="#afb1ca"/><path d="M26.42,14.52a.49.49,0,0,1,0,.12c-.06,1.26-.81.33-2,1.26l-.18.15c-.35.34-.11.44-.83,1.53a2.51,2.51,0,0,1-.29.38c-.74.91-1.15.37-2.42,1.75l-.05.06a5.78,5.78,0,0,0-.43.5l-.23.29h0c-.76,1.07-1.05,2.1-1.59,2.91a3.58,3.58,0,0,1-.47.56l-.25.21c-1.41,1.05-2.83-.13-5.56,2.21l-.15.13a2,2,0,0,0-.18,2,.82.82,0,0,0,.68.38c1.14.06,1.49-.82,1.93-.58l.13.11a1.06,1.06,0,0,1,.22.33c.42.89-.61,1.73,0,1.73a1.33,1.33,0,0,1,.5.07.41.41,0,0,1,.26.3h0a.75.75,0,0,1,0,.29h0c0,.2-.11.42-.15.65a.9.9,0,0,0,0,.7,4.32,4.32,0,0,1,.31.58c.25.57.65.89.73,1.13a.24.24,0,0,1,0,.2.4.4,0,0,1-.35.1A1.33,1.33,0,0,1,15,34c-.33-.59-1.11-1.2-2.91-1.74a1.28,1.28,0,0,1-.77-.85h0a1.83,1.83,0,0,0-.72-1,7.3,7.3,0,0,0-1-.42,1.22,1.22,0,0,1-.34-.18A.86.86,0,0,1,9,29.56a7.23,7.23,0,0,1-.69-1.07,4.74,4.74,0,0,1-.43-2c0-.56-.71-1.09-1.53-1.54l0-.08c.07-.21.14-.4.22-.6a31.75,31.75,0,0,1,2.06-4.37l.06-.11a32,32,0,0,1,8.14-9.4l.17-.14a5,5,0,0,0,.8.62.51.51,0,0,0,.31.08,4.73,4.73,0,0,0,.87-.25c1.59-.57,3.85-1.83,4.75-2s1.62-.29,2.23.53h0a.86.86,0,0,1,.07.1.78.78,0,0,1,.13.3h0a.91.91,0,0,1-.22.78l0,0c-.48.55-1.45.88-1.8.65s-.27-.51-.27-.77,0-.45-.24-.52c-.55-.13-1.29.45-2.52,1.59-.95.9-2.35.85-2.4,1.13a2.08,2.08,0,0,0,1,2l.1,0a.45.45,0,0,0,.11,0l.08,0a.82.82,0,0,0,.27,0c1.16-.24,1-1.54,1.84-2.25s1.09.34,2.56-.39h0a.78.78,0,0,1,.62-.08c.58.15,1,1,1.07,1.88a5.22,5.22,0,0,1,0,.67" fill="#afb1ca"/><path d="M28.16,8c0,.27.62-.06,1.05,0s.54.34.62.8c.13.79-.85,1.23-.66,1.76s.43,1.29,1,1.46S31.8,10.65,33,10.18a31.79,31.79,0,0,0,4.46-1.92c.62-.5,1.34-1.23,1-1.76s-2.21,0-3,.23c-1.37.34-3-.16-4.39,0S28.09,7.36,28.16,8" fill="#afb1ca"/><path d="M27.62,6.74c.06.22-.5.56-1.25.74s-1.28.2-1.45-.06.5-.55,1.25-.74,1.4-.16,1.45.06" fill="#afb1ca"/><path d="M18.43,28.17c-.07.22-.72.2-1.45-.05s-1.05-.29-1.06-.6.67-.33,1.4-.09,1.18.52,1.11.74" fill="#afb1ca"/><path d="M19.68,29.53c.06.17,1.05.11,1-.2s.3-.35-.29-.44-1.09.22-1,.38.24.2.26.26" fill="#afb1ca"/><path d="M6.83,26.33c-.13,0-.34.76-.1.8s.18.32.39-.1.11-.87,0-.83-.2.13-.26.13" fill="#afb1ca"/><path d="M55.55,47.33c0,.88-.29,1.36,0,1.48s1-.38,1.42-1.2a6.74,6.74,0,0,0,.82-2.68c0-.83.1-2.14-.29-2s-.35.54-.69,1A2.31,2.31,0,0,0,56.52,45c-.05.47-1,1-1,2.29" fill="#afb1ca"/><g opacity="0.07"><g clip-path="url(#a)"><path d="M56,60.83a31.41,31.41,0,0,1-19.85,7A32.08,32.08,0,0,1,30.28,4.34,32,32,0,0,0,56,60.83" fill="#4c508a"/></g></g></svg>